<?xml version="1.0" encoding="UTF-8"?><svg xmlns="http://www.w3.org/2000/svg" xmlns:xlink="http://www.w3.org/1999/xlink" fill-opacity="1" color-rendering="auto" color-interpolation="auto" text-rendering="auto" stroke="black" stroke-linecap="square" width="487" stroke-miterlimit="10" shape-rendering="auto" stroke-opacity="1" fill="black" stroke-dasharray="none" font-weight="normal" stroke-width="1" height="195" font-family="'Dialog'" font-style="normal" stroke-linejoin="miter" font-size="12px" stroke-dashoffset="0" image-rendering="auto">
  <!--Generated by ySVG 2.5-->
  <defs id="genericDefs"/>
  <g>
    <defs id="defs1">
      <clipPath clipPathUnits="userSpaceOnUse" id="clipPath1">
        <path d="M0 0 L487 0 L487 195 L0 195 L0 0 Z"/>
      </clipPath>
      <clipPath clipPathUnits="userSpaceOnUse" id="clipPath2">
        <path d="M632 951 L1119 951 L1119 1146 L632 1146 L632 951 Z"/>
      </clipPath>
      <clipPath clipPathUnits="userSpaceOnUse" id="clipPath3">
        <path d="M245.382 -57.0999 L-154.7322 220.5286 L-265.8976 60.3186 L134.2166 -217.3099 L245.382 -57.0999 Z"/>
      </clipPath>
      <clipPath clipPathUnits="userSpaceOnUse" id="clipPath4">
        <path d="M241.1306 -46.8259 L-69.0762 328.5948 L-219.3987 204.3847 L90.8081 -171.036 L241.1306 -46.8259 Z"/>
      </clipPath>
      <clipPath clipPathUnits="userSpaceOnUse" id="clipPath5">
        <path d="M-235.1066 152.3549 L-14.3275 -281.7253 L159.4828 -193.323 L-61.2962 240.7572 L-235.1066 152.3549 Z"/>
      </clipPath>
      <clipPath clipPathUnits="userSpaceOnUse" id="clipPath6">
        <path d="M393.9062 -161.2798 L44.2242 177.6767 L-91.4976 37.6603 L258.1844 -301.2962 L393.9062 -161.2798 Z"/>
      </clipPath>
      <clipPath clipPathUnits="userSpaceOnUse" id="clipPath7">
        <path d="M332.3648 -136.6503 L-55.5512 157.7818 L-173.4449 2.4561 L214.471 -291.976 L332.3648 -136.6503 Z"/>
      </clipPath>
    </defs>
    <g fill="white" text-rendering="geometricPrecision" shape-rendering="geometricPrecision" transform="translate(-632,-951)" stroke="white">
      <rect x="632" width="487" height="195" y="951" clip-path="url(#clipPath2)" stroke="none"/>
    </g>
    <g text-rendering="geometricPrecision" stroke-miterlimit="1.45" shape-rendering="geometricPrecision" transform="matrix(1,0,0,1,-632,-951)" stroke-linecap="butt">
      <rect fill="none" x="738.8233" width="172.9153" height="120.0744" y="1025.1414" clip-path="url(#clipPath2)"/>
      <rect fill="none" x="911.6765" width="148.1134" height="120.0744" y="1025.1414" clip-path="url(#clipPath2)"/>
    </g>
    <g fill="olive" text-rendering="geometricPrecision" shape-rendering="geometricPrecision" transform="matrix(1,0,0,1,-632,-951)" stroke="olive">
      <rect x="960.5032" width="19.7773" height="13.6121" y="1029.4823" clip-path="url(#clipPath2)" stroke="none"/>
    </g>
    <g text-rendering="geometricPrecision" stroke-miterlimit="1.45" shape-rendering="geometricPrecision" transform="matrix(1,0,0,1,-632,-951)" stroke-linecap="butt">
      <rect fill="none" x="960.5032" width="19.7773" height="13.6121" y="1029.4823" clip-path="url(#clipPath2)"/>
      <text x="967.5032" font-size="8px" y="1039.1576" clip-path="url(#clipPath2)" font-family="'Liberation Serif'" stroke="none" xml:space="preserve">G</text>
    </g>
    <g fill="maroon" text-rendering="geometricPrecision" shape-rendering="geometricPrecision" transform="matrix(1,0,0,1,-632,-951)" stroke="maroon">
      <rect x="846.8189" width="19.3359" height="15.5676" y="1029.4823" clip-path="url(#clipPath2)" stroke="none"/>
    </g>
    <g text-rendering="geometricPrecision" stroke-miterlimit="1.45" shape-rendering="geometricPrecision" transform="matrix(1,0,0,1,-632,-951)" stroke-linecap="butt">
      <rect fill="none" x="846.8189" width="19.3359" height="15.5676" y="1029.4823" clip-path="url(#clipPath2)"/>
      <text x="853.8189" font-size="8px" y="1040.1353" clip-path="url(#clipPath2)" font-family="'Liberation Serif'" stroke="none" xml:space="preserve">B</text>
    </g>
    <g fill="silver" text-rendering="geometricPrecision" shape-rendering="geometricPrecision" transform="matrix(1,0,0,1,-632,-951)" stroke="silver">
      <rect x="903.7812" width="17.5508" height="15.5676" y="1002.5729" clip-path="url(#clipPath2)" stroke="none"/>
    </g>
    <g text-rendering="geometricPrecision" stroke-miterlimit="1.45" shape-rendering="geometricPrecision" transform="matrix(1,0,0,1,-632,-951)" stroke-linecap="butt">
      <rect fill="none" x="903.7812" width="17.5508" height="15.5676" y="1002.5729" clip-path="url(#clipPath2)"/>
      <text x="910.7812" font-size="8px" y="1013.2258" clip-path="url(#clipPath2)" font-family="'Liberation Serif'" stroke="none" xml:space="preserve">?</text>
    </g>
    <g fill="olive" text-rendering="geometricPrecision" shape-rendering="geometricPrecision" transform="matrix(1,0,0,1,-632,-951)" stroke="olive">
      <rect x="960.5032" width="19.7773" height="13.6121" y="1093.7905" clip-path="url(#clipPath2)" stroke="none"/>
    </g>
    <g text-rendering="geometricPrecision" stroke-miterlimit="1.45" shape-rendering="geometricPrecision" transform="matrix(1,0,0,1,-632,-951)" stroke-linecap="butt">
      <rect fill="none" x="960.5032" width="19.7773" height="13.6121" y="1093.7905" clip-path="url(#clipPath2)"/>
      <text x="967.5032" font-size="8px" y="1103.4657" clip-path="url(#clipPath2)" font-family="'Liberation Serif'" stroke="none" xml:space="preserve">G</text>
    </g>
    <g fill="maroon" text-rendering="geometricPrecision" shape-rendering="geometricPrecision" transform="matrix(1,0,0,1,-632,-951)" stroke="maroon">
      <rect x="1009.3919" width="19.3359" height="15.5676" y="1093.7905" clip-path="url(#clipPath2)" stroke="none"/>
    </g>
    <g text-rendering="geometricPrecision" stroke-miterlimit="1.45" shape-rendering="geometricPrecision" transform="matrix(1,0,0,1,-632,-951)" stroke-linecap="butt">
      <rect fill="none" x="1009.3919" width="19.3359" height="15.5676" y="1093.7905" clip-path="url(#clipPath2)"/>
      <text x="1016.3919" font-size="8px" y="1104.4435" clip-path="url(#clipPath2)" font-family="'Liberation Serif'" stroke="none" xml:space="preserve">B</text>
    </g>
    <g fill="rgb(204,153,255)" text-rendering="geometricPrecision" shape-rendering="geometricPrecision" transform="matrix(1,0,0,1,-632,-951)" stroke="rgb(204,153,255)">
      <rect x="845.0842" width="34.9531" height="13.6121" y="1061.4378" clip-path="url(#clipPath2)" stroke="none"/>
    </g>
    <g text-rendering="geometricPrecision" stroke-miterlimit="1.45" shape-rendering="geometricPrecision" transform="matrix(1,0,0,1,-632,-951)" stroke-linecap="butt">
      <rect fill="none" x="845.0842" width="34.9531" height="13.6121" y="1061.4378" clip-path="url(#clipPath2)"/>
      <text x="852.0842" font-size="8px" y="1071.1129" clip-path="url(#clipPath2)" font-family="'Liberation Serif'" stroke="none" xml:space="preserve">G = -1</text>
    </g>
    <g fill="lime" text-rendering="geometricPrecision" shape-rendering="geometricPrecision" transform="matrix(1,0,0,1,-632,-951)" stroke="lime">
      <rect x="852.7473" width="28.4414" height="13.6121" y="1123.4964" clip-path="url(#clipPath2)" stroke="none"/>
    </g>
    <g text-rendering="geometricPrecision" stroke-miterlimit="1.45" shape-rendering="geometricPrecision" transform="matrix(1,0,0,1,-632,-951)" stroke-linecap="butt">
      <rect fill="none" x="852.7473" width="28.4414" height="13.6121" y="1123.4964" clip-path="url(#clipPath2)"/>
      <text x="859.7473" font-size="8px" y="1133.1716" clip-path="url(#clipPath2)" font-family="'Liberation Serif'" stroke="none" xml:space="preserve">-1 G</text>
    </g>
    <g fill="rgb(255,102,0)" text-rendering="geometricPrecision" shape-rendering="geometricPrecision" transform="matrix(1,0,0,1,-632,-951)" stroke="rgb(255,102,0)">
      <rect x="781.0097" width="46.6602" height="15.5676" y="1060.4601" clip-path="url(#clipPath2)" stroke="none"/>
    </g>
    <g text-rendering="geometricPrecision" stroke-miterlimit="1.45" shape-rendering="geometricPrecision" transform="matrix(1,0,0,1,-632,-951)" stroke-linecap="butt">
      <rect fill="none" x="781.0097" width="46.6602" height="15.5676" y="1060.4601" clip-path="url(#clipPath2)"/>
      <text x="788.0097" font-size="8px" y="1071.1129" clip-path="url(#clipPath2)" font-family="'Liberation Serif'" stroke="none" xml:space="preserve">B(col 1/6)</text>
      <rect fill="none" x="912.5286" width="175.0625" height="30" y="951.739" clip-path="url(#clipPath2)"/>
      <text x="919.5286" font-size="8px" y="969.6081" clip-path="url(#clipPath2)" font-family="'Liberation Serif'" stroke="none" xml:space="preserve">If current gamer play well, opponent could no win</text>
      <rect fill="none" x="738.8775" width="160.625" height="30" y="951.739" clip-path="url(#clipPath2)"/>
      <text x="745.8774" font-size="8px" y="969.6081" clip-path="url(#clipPath2)" font-family="'Liberation Serif'" stroke="none" xml:space="preserve">Bad branch. If the opponent play well he win </text>
    </g>
    <g fill="rgb(255,102,0)" text-rendering="geometricPrecision" shape-rendering="geometricPrecision" transform="matrix(1,0,0,1,-632,-951)" stroke="rgb(255,102,0)">
      <rect x="914.255" width="19.3359" height="15.5676" y="1060.196" clip-path="url(#clipPath2)" stroke="none"/>
    </g>
    <g text-rendering="geometricPrecision" stroke-miterlimit="1.45" shape-rendering="geometricPrecision" transform="matrix(1,0,0,1,-632,-951)" stroke-linecap="butt">
      <rect fill="none" x="914.255" width="19.3359" height="15.5676" y="1060.196" clip-path="url(#clipPath2)"/>
      <text x="921.2549" font-size="8px" y="1070.849" clip-path="url(#clipPath2)" font-family="'Liberation Serif'" stroke="none" xml:space="preserve">B</text>
    </g>
    <g fill="silver" text-rendering="geometricPrecision" shape-rendering="geometricPrecision" transform="matrix(1,0,0,1,-632,-951)" stroke="silver">
      <rect x="961.3919" width="18" height="15.5676" y="1121.541" clip-path="url(#clipPath2)" stroke="none"/>
    </g>
    <g text-rendering="geometricPrecision" stroke-miterlimit="1.45" shape-rendering="geometricPrecision" transform="matrix(1,0,0,1,-632,-951)" stroke-linecap="butt">
      <rect fill="none" x="961.3919" width="18" height="15.5676" y="1121.541" clip-path="url(#clipPath2)"/>
      <text x="968.3919" font-size="8px" y="1132.1938" clip-path="url(#clipPath2)" font-family="'Liberation Serif'" stroke="none" xml:space="preserve">0</text>
    </g>
    <g fill="lime" text-rendering="geometricPrecision" shape-rendering="geometricPrecision" transform="matrix(1,0,0,1,-632,-951)" stroke="lime">
      <rect x="985.8392" width="28.4414" height="13.6121" y="1122.5187" clip-path="url(#clipPath2)" stroke="none"/>
    </g>
    <g text-rendering="geometricPrecision" stroke-miterlimit="1.45" shape-rendering="geometricPrecision" transform="matrix(1,0,0,1,-632,-951)" stroke-linecap="butt">
      <rect fill="none" x="985.8392" width="28.4414" height="13.6121" y="1122.5187" clip-path="url(#clipPath2)"/>
      <text x="992.8392" font-size="8px" y="1132.1938" clip-path="url(#clipPath2)" font-family="'Liberation Serif'" stroke="none" xml:space="preserve">-1 G</text>
    </g>
    <g fill="silver" text-rendering="geometricPrecision" shape-rendering="geometricPrecision" transform="matrix(1,0,0,1,-632,-951)" stroke="silver">
      <rect x="914.9229" width="18" height="15.5676" y="1121.541" clip-path="url(#clipPath2)" stroke="none"/>
    </g>
    <g text-rendering="geometricPrecision" stroke-miterlimit="1.45" shape-rendering="geometricPrecision" transform="matrix(1,0,0,1,-632,-951)" stroke-linecap="butt">
      <rect fill="none" x="914.9229" width="18" height="15.5676" y="1121.541" clip-path="url(#clipPath2)"/>
      <text x="921.9229" font-size="8px" y="1132.1938" clip-path="url(#clipPath2)" font-family="'Liberation Serif'" stroke="none" xml:space="preserve">0</text>
    </g>
    <g fill="maroon" text-rendering="geometricPrecision" shape-rendering="geometricPrecision" transform="matrix(1,0,0,1,-632,-951)" stroke="maroon">
      <rect x="835.848" width="19.3359" height="15.5676" y="1091.4894" clip-path="url(#clipPath2)" stroke="none"/>
    </g>
    <g text-rendering="geometricPrecision" stroke-miterlimit="1.45" shape-rendering="geometricPrecision" transform="matrix(1,0,0,1,-632,-951)" stroke-linecap="butt">
      <rect fill="none" x="835.848" width="19.3359" height="15.5676" y="1091.4894" clip-path="url(#clipPath2)"/>
      <text x="842.848" font-size="8px" y="1102.1423" clip-path="url(#clipPath2)" font-family="'Liberation Serif'" stroke="none" xml:space="preserve">B</text>
    </g>
    <g fill="maroon" text-rendering="geometricPrecision" shape-rendering="geometricPrecision" transform="matrix(1,0,0,1,-632,-951)" stroke="maroon">
      <rect x="805.5919" width="19.3359" height="15.5676" y="1091.4894" clip-path="url(#clipPath2)" stroke="none"/>
    </g>
    <g text-rendering="geometricPrecision" stroke-miterlimit="1.45" shape-rendering="geometricPrecision" transform="matrix(1,0,0,1,-632,-951)" stroke-linecap="butt">
      <rect fill="none" x="805.5919" width="19.3359" height="15.5676" y="1091.4894" clip-path="url(#clipPath2)"/>
      <text x="812.5919" font-size="8px" y="1102.1423" clip-path="url(#clipPath2)" font-family="'Liberation Serif'" stroke="none" xml:space="preserve">B</text>
    </g>
    <g fill="lime" text-rendering="geometricPrecision" shape-rendering="geometricPrecision" transform="matrix(1,0,0,1,-632,-951)" stroke="lime">
      <rect x="803.4577" width="28.4414" height="13.6121" y="1122.5187" clip-path="url(#clipPath2)" stroke="none"/>
    </g>
    <g text-rendering="geometricPrecision" stroke-miterlimit="1.45" shape-rendering="geometricPrecision" transform="matrix(1,0,0,1,-632,-951)" stroke-linecap="butt">
      <rect fill="none" x="803.4577" width="28.4414" height="13.6121" y="1122.5187" clip-path="url(#clipPath2)"/>
      <text x="810.4577" font-size="8px" y="1132.1938" clip-path="url(#clipPath2)" font-family="'Liberation Serif'" stroke="none" xml:space="preserve">-1 G</text>
    </g>
    <g fill="rgb(255,102,0)" text-rendering="geometricPrecision" shape-rendering="geometricPrecision" transform="matrix(1,0,0,1,-632,-951)" stroke="rgb(255,102,0)">
      <rect x="735.529" width="41.1094" height="15.5676" y="1060.4601" clip-path="url(#clipPath2)" stroke="none"/>
    </g>
    <g text-rendering="geometricPrecision" stroke-miterlimit="1.45" shape-rendering="geometricPrecision" transform="matrix(1,0,0,1,-632,-951)" stroke-linecap="butt">
      <rect fill="none" x="735.529" width="41.1094" height="15.5676" y="1060.4601" clip-path="url(#clipPath2)"/>
      <text x="742.529" font-size="8px" y="1071.1129" clip-path="url(#clipPath2)" font-family="'Liberation Serif'" stroke="none" xml:space="preserve">B (l 3/4)</text>
    </g>
    <g fill="silver" text-rendering="geometricPrecision" shape-rendering="geometricPrecision" transform="matrix(1,0,0,1,-632,-951)" stroke="silver">
      <rect x="746.6718" width="18" height="15.5676" y="1090.5117" clip-path="url(#clipPath2)" stroke="none"/>
    </g>
    <g text-rendering="geometricPrecision" stroke-miterlimit="1.45" shape-rendering="geometricPrecision" transform="matrix(1,0,0,1,-632,-951)" stroke-linecap="butt">
      <rect fill="none" x="746.6718" width="18" height="15.5676" y="1090.5117" clip-path="url(#clipPath2)"/>
      <text x="753.6718" font-size="8px" y="1101.1646" clip-path="url(#clipPath2)" font-family="'Liberation Serif'" stroke="none" xml:space="preserve">0</text>
    </g>
    <g fill="silver" text-rendering="geometricPrecision" shape-rendering="geometricPrecision" transform="matrix(1,0,0,1,-632,-951)" stroke="silver">
      <rect x="746.6718" width="18" height="15.5676" y="1121.541" clip-path="url(#clipPath2)" stroke="none"/>
    </g>
    <g text-rendering="geometricPrecision" stroke-miterlimit="1.45" shape-rendering="geometricPrecision" transform="matrix(1,0,0,1,-632,-951)" stroke-linecap="butt">
      <rect fill="none" x="746.6718" width="18" height="15.5676" y="1121.541" clip-path="url(#clipPath2)"/>
      <text x="753.6718" font-size="8px" y="1132.1938" clip-path="url(#clipPath2)" font-family="'Liberation Serif'" stroke="none" xml:space="preserve">0</text>
    </g>
    <g fill="olive" text-rendering="geometricPrecision" shape-rendering="geometricPrecision" transform="matrix(1,0,0,1,-632,-951)" stroke="olive">
      <rect x="775.7831" width="19.7773" height="13.6121" y="1091.4894" clip-path="url(#clipPath2)" stroke="none"/>
    </g>
    <g text-rendering="geometricPrecision" stroke-miterlimit="1.45" shape-rendering="geometricPrecision" transform="matrix(1,0,0,1,-632,-951)" stroke-linecap="butt">
      <rect fill="none" x="775.7831" width="19.7773" height="13.6121" y="1091.4894" clip-path="url(#clipPath2)"/>
      <text x="782.7831" font-size="8px" y="1101.1646" clip-path="url(#clipPath2)" font-family="'Liberation Serif'" stroke="none" xml:space="preserve">G</text>
    </g>
    <g fill="silver" text-rendering="geometricPrecision" shape-rendering="geometricPrecision" transform="matrix(1,0,0,1,-632,-951)" stroke="silver">
      <rect x="776.6718" width="18" height="15.5676" y="1121.541" clip-path="url(#clipPath2)" stroke="none"/>
    </g>
    <g text-rendering="geometricPrecision" stroke-miterlimit="1.45" shape-rendering="geometricPrecision" transform="matrix(1,0,0,1,-632,-951)" stroke-linecap="butt">
      <rect fill="none" x="776.6718" width="18" height="15.5676" y="1121.541" clip-path="url(#clipPath2)"/>
      <text x="783.6718" font-size="8px" y="1132.1938" clip-path="url(#clipPath2)" font-family="'Liberation Serif'" stroke="none" xml:space="preserve">0</text>
    </g>
    <g fill="silver" text-rendering="geometricPrecision" shape-rendering="geometricPrecision" transform="matrix(1,0,0,1,-632,-951)" stroke="silver">
      <rect x="890.3418" width="18" height="15.5676" y="1059.2183" clip-path="url(#clipPath2)" stroke="none"/>
    </g>
    <g text-rendering="geometricPrecision" stroke-miterlimit="1.45" shape-rendering="geometricPrecision" transform="matrix(1,0,0,1,-632,-951)" stroke-linecap="butt">
      <rect fill="none" x="890.3418" width="18" height="15.5676" y="1059.2183" clip-path="url(#clipPath2)"/>
      <text x="897.3419" font-size="8px" y="1069.8712" clip-path="url(#clipPath2)" font-family="'Liberation Serif'" stroke="none" xml:space="preserve">_</text>
    </g>
    <g fill="silver" text-rendering="geometricPrecision" shape-rendering="geometricPrecision" transform="matrix(1,0,0,1,-632,-951)" stroke="silver">
      <rect x="831.8991" width="18" height="15.5676" y="1122.5187" clip-path="url(#clipPath2)" stroke="none"/>
    </g>
    <g text-rendering="geometricPrecision" stroke-miterlimit="1.45" shape-rendering="geometricPrecision" transform="matrix(1,0,0,1,-632,-951)" stroke-linecap="butt">
      <rect fill="none" x="831.8991" width="18" height="15.5676" y="1122.5187" clip-path="url(#clipPath2)"/>
      <text x="838.8991" font-size="8px" y="1133.1716" clip-path="url(#clipPath2)" font-family="'Liberation Serif'" stroke="none" xml:space="preserve">_</text>
    </g>
    <g fill="silver" text-rendering="geometricPrecision" shape-rendering="geometricPrecision" transform="matrix(1,0,0,1,-632,-951)" stroke="silver">
      <rect x="869.3426" width="18" height="15.5676" y="1091.4894" clip-path="url(#clipPath2)" stroke="none"/>
    </g>
    <g text-rendering="geometricPrecision" stroke-miterlimit="1.45" shape-rendering="geometricPrecision" transform="matrix(1,0,0,1,-632,-951)" stroke-linecap="butt">
      <rect fill="none" x="869.3426" width="18" height="15.5676" y="1091.4894" clip-path="url(#clipPath2)"/>
      <text x="876.3427" font-size="8px" y="1102.1423" clip-path="url(#clipPath2)" font-family="'Liberation Serif'" stroke="none" xml:space="preserve">_</text>
    </g>
    <g fill="silver" text-rendering="geometricPrecision" shape-rendering="geometricPrecision" transform="matrix(1,0,0,1,-632,-951)" stroke="silver">
      <rect x="1071.7899" width="47.1094" height="15.5676" y="1077.3948" clip-path="url(#clipPath2)" stroke="none"/>
    </g>
    <g text-rendering="geometricPrecision" stroke-miterlimit="1.45" shape-rendering="geometricPrecision" transform="matrix(1,0,0,1,-632,-951)" stroke-linecap="butt">
      <rect fill="none" x="1071.7899" width="47.1094" height="15.5676" y="1077.3948" clip-path="url(#clipPath2)"/>
      <text x="1078.7899" font-size="8px" y="1088.0477" clip-path="url(#clipPath2)" font-family="'Liberation Serif'" stroke="none" xml:space="preserve">_: pruning</text>
    </g>
    <g fill="silver" text-rendering="geometricPrecision" shape-rendering="geometricPrecision" transform="matrix(1,0,0,1,-632,-951)" stroke="silver">
      <rect x="1038.6882" width="18" height="15.5676" y="1121.541" clip-path="url(#clipPath2)" stroke="none"/>
    </g>
    <g text-rendering="geometricPrecision" stroke-miterlimit="1.45" shape-rendering="geometricPrecision" transform="matrix(1,0,0,1,-632,-951)" stroke-linecap="butt">
      <rect fill="none" x="1038.6882" width="18" height="15.5676" y="1121.541" clip-path="url(#clipPath2)"/>
      <text x="1045.6882" font-size="8px" y="1132.1938" clip-path="url(#clipPath2)" font-family="'Liberation Serif'" stroke="none" xml:space="preserve">_</text>
    </g>
    <g fill="silver" text-rendering="geometricPrecision" shape-rendering="geometricPrecision" transform="matrix(1,0,0,1,-632,-951)" stroke="silver">
      <rect x="1002.2052" width="18" height="15.5676" y="1059.4823" clip-path="url(#clipPath2)" stroke="none"/>
    </g>
    <g text-rendering="geometricPrecision" stroke-miterlimit="1.45" shape-rendering="geometricPrecision" transform="matrix(1,0,0,1,-632,-951)" stroke-linecap="butt">
      <rect fill="none" x="1002.2052" width="18" height="15.5676" y="1059.4823" clip-path="url(#clipPath2)"/>
      <text x="1009.2053" font-size="8px" y="1070.1353" clip-path="url(#clipPath2)" font-family="'Liberation Serif'" stroke="none" xml:space="preserve">_</text>
    </g>
    <g fill="rgb(255,204,0)" text-rendering="geometricPrecision" shape-rendering="geometricPrecision" transform="matrix(1,0,0,1,-632,-951)" stroke="rgb(255,204,0)">
      <rect x="687.3558" width="26.4453" height="11.6567" y="1033.3932" clip-path="url(#clipPath2)" stroke="none"/>
    </g>
    <g text-rendering="geometricPrecision" stroke-miterlimit="1.45" shape-rendering="geometricPrecision" transform="matrix(1,0,0,1,-632,-951)" stroke-linecap="butt">
      <rect fill="none" x="687.3558" width="26.4453" height="11.6567" y="1033.3932" clip-path="url(#clipPath2)"/>
      <text x="694.3558" font-size="8px" y="1042.0907" clip-path="url(#clipPath2)" font-family="'Liberation Serif'" stroke="none" xml:space="preserve">min</text>
    </g>
    <g fill="rgb(255,204,0)" text-rendering="geometricPrecision" shape-rendering="geometricPrecision" transform="matrix(1,0,0,1,-632,-951)" stroke="rgb(255,204,0)">
      <rect x="686.6917" width="27.7734" height="11.6567" y="1063.3932" clip-path="url(#clipPath2)" stroke="none"/>
    </g>
    <g text-rendering="geometricPrecision" stroke-miterlimit="1.45" shape-rendering="geometricPrecision" transform="matrix(1,0,0,1,-632,-951)" stroke-linecap="butt">
      <rect fill="none" x="686.6917" width="27.7734" height="11.6567" y="1063.3932" clip-path="url(#clipPath2)"/>
      <text x="693.6917" font-size="8px" y="1072.0907" clip-path="url(#clipPath2)" font-family="'Liberation Serif'" stroke="none" xml:space="preserve">max</text>
    </g>
    <g fill="rgb(255,204,0)" text-rendering="geometricPrecision" shape-rendering="geometricPrecision" transform="matrix(1,0,0,1,-632,-951)" stroke="rgb(255,204,0)">
      <rect x="686.6917" width="27.7734" height="11.6567" y="1004.5283" clip-path="url(#clipPath2)" stroke="none"/>
    </g>
    <g text-rendering="geometricPrecision" stroke-miterlimit="1.45" shape-rendering="geometricPrecision" transform="matrix(1,0,0,1,-632,-951)" stroke-linecap="butt">
      <rect fill="none" x="686.6917" width="27.7734" height="11.6567" y="1004.5283" clip-path="url(#clipPath2)"/>
      <text x="693.6917" font-size="8px" y="1013.2258" clip-path="url(#clipPath2)" font-family="'Liberation Serif'" stroke="none" xml:space="preserve">max</text>
    </g>
    <g fill="rgb(255,204,0)" text-rendering="geometricPrecision" shape-rendering="geometricPrecision" transform="matrix(1,0,0,1,-632,-951)" stroke="rgb(255,204,0)">
      <rect x="648.7371" width="18" height="11.6567" y="1004.5283" clip-path="url(#clipPath2)" stroke="none"/>
    </g>
    <g text-rendering="geometricPrecision" stroke-miterlimit="1.45" shape-rendering="geometricPrecision" transform="matrix(1,0,0,1,-632,-951)" stroke-linecap="butt">
      <rect fill="none" x="648.7371" width="18" height="11.6567" y="1004.5283" clip-path="url(#clipPath2)"/>
      <text x="655.7371" font-size="8px" y="1013.2258" clip-path="url(#clipPath2)" font-family="'Liberation Serif'" stroke="none" xml:space="preserve">0</text>
    </g>
    <g fill="rgb(255,204,0)" text-rendering="geometricPrecision" shape-rendering="geometricPrecision" transform="matrix(1,0,0,1,-632,-951)" stroke="rgb(255,204,0)">
      <rect x="632.7615" width="47.1016" height="11.6567" y="1033.3932" clip-path="url(#clipPath2)" stroke="none"/>
    </g>
    <g text-rendering="geometricPrecision" stroke-miterlimit="1.45" shape-rendering="geometricPrecision" transform="matrix(1,0,0,1,-632,-951)" stroke-linecap="butt">
      <rect fill="none" x="632.7615" width="47.1016" height="11.6567" y="1033.3932" clip-path="url(#clipPath2)"/>
      <text x="639.7615" font-size="8px" y="1042.0907" clip-path="url(#clipPath2)" font-family="'Liberation Serif'" stroke="none" xml:space="preserve">1 (yellow)</text>
    </g>
    <g fill="rgb(255,204,0)" text-rendering="geometricPrecision" shape-rendering="geometricPrecision" transform="matrix(1,0,0,1,-632,-951)" stroke="rgb(255,204,0)">
      <rect x="638.5408" width="35.543" height="11.6567" y="1063.3932" clip-path="url(#clipPath2)" stroke="none"/>
    </g>
    <g text-rendering="geometricPrecision" stroke-miterlimit="1.45" shape-rendering="geometricPrecision" transform="matrix(1,0,0,1,-632,-951)" stroke-linecap="butt">
      <rect fill="none" x="638.5408" width="35.543" height="11.6567" y="1063.3932" clip-path="url(#clipPath2)"/>
      <text x="645.5408" font-size="8px" y="1072.0907" clip-path="url(#clipPath2)" font-family="'Liberation Serif'" stroke="none" xml:space="preserve">2 (red)</text>
    </g>
    <g fill="rgb(255,204,0)" text-rendering="geometricPrecision" shape-rendering="geometricPrecision" transform="matrix(1,0,0,1,-632,-951)" stroke="rgb(255,204,0)">
      <rect x="632.7615" width="47.1016" height="11.6567" y="1092.4671" clip-path="url(#clipPath2)" stroke="none"/>
    </g>
    <g text-rendering="geometricPrecision" stroke-miterlimit="1.45" shape-rendering="geometricPrecision" transform="matrix(1,0,0,1,-632,-951)" stroke-linecap="butt">
      <rect fill="none" x="632.7615" width="47.1016" height="11.6567" y="1092.4671" clip-path="url(#clipPath2)"/>
      <text x="639.7615" font-size="8px" y="1101.1646" clip-path="url(#clipPath2)" font-family="'Liberation Serif'" stroke="none" xml:space="preserve">3 (yellow)</text>
    </g>
    <g fill="rgb(255,204,0)" text-rendering="geometricPrecision" shape-rendering="geometricPrecision" transform="matrix(1,0,0,1,-632,-951)" stroke="rgb(255,204,0)">
      <rect x="687.3558" width="26.4453" height="11.6567" y="1092.4671" clip-path="url(#clipPath2)" stroke="none"/>
    </g>
    <g text-rendering="geometricPrecision" stroke-miterlimit="1.45" shape-rendering="geometricPrecision" transform="matrix(1,0,0,1,-632,-951)" stroke-linecap="butt">
      <rect fill="none" x="687.3558" width="26.4453" height="11.6567" y="1092.4671" clip-path="url(#clipPath2)"/>
      <text x="694.3558" font-size="8px" y="1101.1646" clip-path="url(#clipPath2)" font-family="'Liberation Serif'" stroke="none" xml:space="preserve">min</text>
    </g>
    <g fill="rgb(255,204,0)" text-rendering="geometricPrecision" shape-rendering="geometricPrecision" transform="matrix(1,0,0,1,-632,-951)" stroke="rgb(255,204,0)">
      <rect x="638.5408" width="35.543" height="11.6567" y="1123.4964" clip-path="url(#clipPath2)" stroke="none"/>
    </g>
    <g text-rendering="geometricPrecision" stroke-miterlimit="1.45" shape-rendering="geometricPrecision" transform="matrix(1,0,0,1,-632,-951)" stroke-linecap="butt">
      <rect fill="none" x="638.5408" width="35.543" height="11.6567" y="1123.4964" clip-path="url(#clipPath2)"/>
      <text x="645.5408" font-size="8px" y="1132.1938" clip-path="url(#clipPath2)" font-family="'Liberation Serif'" stroke="none" xml:space="preserve">4 (red)</text>
    </g>
    <g fill="olive" text-rendering="geometricPrecision" shape-rendering="geometricPrecision" transform="matrix(1,0,0,1,-632,-951)" stroke="olive">
      <rect x="960.5032" width="19.7773" height="13.6121" y="1061.6364" clip-path="url(#clipPath2)" stroke="none"/>
    </g>
    <g text-rendering="geometricPrecision" stroke-miterlimit="1.45" shape-rendering="geometricPrecision" transform="matrix(1,0,0,1,-632,-951)" stroke-linecap="butt">
      <rect fill="none" x="960.5032" width="19.7773" height="13.6121" y="1061.6364" clip-path="url(#clipPath2)"/>
      <text x="967.5032" font-size="8px" y="1071.3116" clip-path="url(#clipPath2)" font-family="'Liberation Serif'" stroke="none" xml:space="preserve">G</text>
      <path fill="none" d="M903.7812 1014.5682 L866.1548 1032.6262" clip-path="url(#clipPath2)"/>
      <path fill="none" d="M921.332 1014.2913 L960.5032 1031.8546" clip-path="url(#clipPath2)"/>
      <path fill="none" d="M858.0131 1045.0499 L861.2263 1061.4377" clip-path="url(#clipPath2)"/>
      <path fill="none" d="M846.8189 1043.0093 L817.4428 1060.4601" clip-path="url(#clipPath2)"/>
      <path fill="none" d="M999.7943 981.739 L999.0258 1025.1403" clip-path="url(#clipPath2)"/>
      <path fill="none" d="M819.1899 981.739 L819.1899 1025.1187" clip-path="url(#clipPath2)"/>
      <path fill="none" d="M960.5032 1043.0323 L933.5909 1061.3864" clip-path="url(#clipPath2)"/>
      <path fill="none" d="M970.3919 1107.4027 L970.3919 1121.541" clip-path="url(#clipPath2)"/>
      <path fill="none" d="M1013.7305 1109.3582 L1004.7198 1122.5187" clip-path="url(#clipPath2)"/>
      <path fill="none" d="M923.9229 1075.7635 L923.9229 1121.541" clip-path="url(#clipPath2)"/>
      <path fill="none" d="M858.8221 1075.0499 L849.7917 1091.4894" clip-path="url(#clipPath2)"/>
      <path fill="none" d="M850.8972 1107.0569 L862.2627 1123.4965" clip-path="url(#clipPath2)"/>
      <path fill="none" d="M807.0791 1076.0276 L812.5205 1091.4894" clip-path="url(#clipPath2)"/>
      <path fill="none" d="M815.8863 1107.0569 L817.1307 1122.5187" clip-path="url(#clipPath2)"/>
      <path fill="none" d="M846.8189 1040.249 L776.6384 1061.902" clip-path="url(#clipPath2)"/>
      <path fill="none" d="M755.977 1076.0276 L755.7785 1090.5117" clip-path="url(#clipPath2)"/>
      <path fill="none" d="M755.6718 1106.0792 L755.6718 1121.541" clip-path="url(#clipPath2)"/>
      <path fill="none" d="M799.5045 1076.0276 L789.8997 1091.4894" clip-path="url(#clipPath2)"/>
      <path fill="none" d="M785.6718 1105.1016 L785.6718 1121.541" clip-path="url(#clipPath2)"/>
      <path fill="none" d="M866.1548 1043.9745 L890.3419 1060.7572" clip-path="url(#clipPath2)"/>
      <line transform="matrix(-0.8216,-0.5701,0.5701,-0.8216,866.1548,1043.9745)" clip-path="url(#clipPath3)" fill="none" x1="-15" x2="-15" y1="-8" y2="8"/>
      <line transform="matrix(-0.8216,-0.5701,0.5701,-0.8216,866.1548,1043.9745)" clip-path="url(#clipPath3)" fill="none" x1="-6" x2="-6" y1="-8" y2="8"/>
    </g>
    <g text-rendering="geometricPrecision" stroke-miterlimit="1.45" shape-rendering="geometricPrecision" transform="matrix(1,0,0,1,-632,-951)" stroke-linecap="butt">
      <path fill="none" d="M821.6915 1107.0569 L834.4675 1122.5187" clip-path="url(#clipPath2)"/>
      <line transform="matrix(-0.637,-0.7709,0.7709,-0.637,821.6915,1107.0569)" clip-path="url(#clipPath4)" fill="none" x1="-15" x2="-15" y1="-8" y2="8"/>
      <line transform="matrix(-0.637,-0.7709,0.7709,-0.637,821.6915,1107.0569)" clip-path="url(#clipPath4)" fill="none" x1="-6" x2="-6" y1="-8" y2="8"/>
    </g>
    <g text-rendering="geometricPrecision" stroke-miterlimit="1.45" shape-rendering="geometricPrecision" transform="matrix(1,0,0,1,-632,-951)" stroke-linecap="butt">
      <path fill="none" d="M874.3837 1091.4894 L866.0224 1075.0499" clip-path="url(#clipPath2)"/>
      <line transform="matrix(0.4533,0.8913,-0.8913,0.4533,874.3837,1091.4894)" clip-path="url(#clipPath5)" fill="none" x1="-15" x2="-15" y1="-8" y2="8"/>
      <line transform="matrix(0.4533,0.8913,-0.8913,0.4533,874.3837,1091.4894)" clip-path="url(#clipPath5)" fill="none" x1="-6" x2="-6" y1="-8" y2="8"/>
    </g>
    <g text-rendering="geometricPrecision" stroke-miterlimit="1.45" shape-rendering="geometricPrecision" transform="matrix(1,0,0,1,-632,-951)" stroke-linecap="butt">
      <path fill="none" d="M1027.0898 1109.3582 L1039.6582 1121.541" clip-path="url(#clipPath2)"/>
      <line transform="matrix(-0.718,-0.696,0.696,-0.718,1027.0898,1109.3582)" clip-path="url(#clipPath6)" fill="none" x1="-15" x2="-15" y1="-8" y2="8"/>
      <line transform="matrix(-0.718,-0.696,0.696,-0.718,1027.0898,1109.3582)" clip-path="url(#clipPath6)" fill="none" x1="-6" x2="-6" y1="-8" y2="8"/>
    </g>
    <g text-rendering="geometricPrecision" stroke-miterlimit="1.45" shape-rendering="geometricPrecision" transform="matrix(1,0,0,1,-632,-951)" stroke-linecap="butt">
      <path fill="none" d="M979.3589 1043.0945 L1002.2053 1060.4351" clip-path="url(#clipPath2)"/>
      <line transform="matrix(-0.7965,-0.6046,0.6046,-0.7965,979.3589,1043.0945)" clip-path="url(#clipPath7)" fill="none" x1="-15" x2="-15" y1="-8" y2="8"/>
      <line transform="matrix(-0.7965,-0.6046,0.6046,-0.7965,979.3589,1043.0945)" clip-path="url(#clipPath7)" fill="none" x1="-6" x2="-6" y1="-8" y2="8"/>
    </g>
    <g text-rendering="geometricPrecision" stroke-miterlimit="1.45" shape-rendering="geometricPrecision" transform="matrix(1,0,0,1,-632,-951)" stroke-linecap="butt">
      <path fill="none" d="M970.3919 1043.0945 L970.3919 1061.6365" clip-path="url(#clipPath2)"/>
      <path fill="none" d="M970.3919 1075.2485 L970.3919 1093.7905" clip-path="url(#clipPath2)"/>
      <path fill="none" d="M980.2806 1075.1744 L1009.3919 1094.9927" clip-path="url(#clipPath2)"/>
    </g>
  </g>
</svg>
