<?xml version="1.0" encoding="UTF-8"?><svg xmlns="http://www.w3.org/2000/svg" xmlns:xlink="http://www.w3.org/1999/xlink" fill-opacity="1" color-rendering="auto" color-interpolation="auto" text-rendering="auto" stroke="black" stroke-linecap="square" width="836" stroke-miterlimit="10" shape-rendering="auto" stroke-opacity="1" fill="black" stroke-dasharray="none" font-weight="normal" stroke-width="1" height="222" font-family="'Dialog'" font-style="normal" stroke-linejoin="miter" font-size="12px" stroke-dashoffset="0" image-rendering="auto">
  <!--Generated by ySVG 2.5-->
  <defs id="genericDefs"/>
  <g>
    <defs id="defs1">
      <clipPath clipPathUnits="userSpaceOnUse" id="clipPath1">
        <path d="M0 0 L836 0 L836 222 L0 222 L0 0 Z"/>
      </clipPath>
      <clipPath clipPathUnits="userSpaceOnUse" id="clipPath2">
        <path d="M648 668 L1484 668 L1484 890 L648 890 L648 668 Z"/>
      </clipPath>
    </defs>
    <g fill="white" text-rendering="geometricPrecision" shape-rendering="geometricPrecision" transform="translate(-648,-668)" stroke="white">
      <rect x="648" width="836" height="222" y="668" clip-path="url(#clipPath2)" stroke="none"/>
    </g>
    <g text-rendering="geometricPrecision" stroke-miterlimit="1.45" shape-rendering="geometricPrecision" transform="matrix(1,0,0,1,-648,-668)" stroke-linecap="butt">
      <rect fill="none" x="746.3187" width="179.4804" height="120.0744" y="741.7995" clip-path="url(#clipPath2)"/>
      <rect fill="none" x="925.9788" width="148.1134" height="120.0744" y="741.7995" clip-path="url(#clipPath2)"/>
    </g>
    <g fill="rgb(255,204,0)" text-rendering="geometricPrecision" shape-rendering="geometricPrecision" transform="matrix(1,0,0,1,-648,-668)" stroke="rgb(255,204,0)">
      <rect x="703.307" width="26.4453" height="11.6567" y="748.0959" clip-path="url(#clipPath2)" stroke="none"/>
    </g>
    <g text-rendering="geometricPrecision" stroke-miterlimit="1.45" shape-rendering="geometricPrecision" transform="matrix(1,0,0,1,-648,-668)" stroke-linecap="butt">
      <rect fill="none" x="703.307" width="26.4453" height="11.6567" y="748.0959" clip-path="url(#clipPath2)"/>
      <text x="710.307" font-size="8px" y="756.7934" clip-path="url(#clipPath2)" font-family="'Liberation Serif'" stroke="none" xml:space="preserve">min</text>
    </g>
    <g fill="rgb(255,204,0)" text-rendering="geometricPrecision" shape-rendering="geometricPrecision" transform="matrix(1,0,0,1,-648,-668)" stroke="rgb(255,204,0)">
      <rect x="702.643" width="27.7734" height="11.6567" y="778.0959" clip-path="url(#clipPath2)" stroke="none"/>
    </g>
    <g text-rendering="geometricPrecision" stroke-miterlimit="1.45" shape-rendering="geometricPrecision" transform="matrix(1,0,0,1,-648,-668)" stroke-linecap="butt">
      <rect fill="none" x="702.643" width="27.7734" height="11.6567" y="778.0959" clip-path="url(#clipPath2)"/>
      <text x="709.6429" font-size="8px" y="786.7934" clip-path="url(#clipPath2)" font-family="'Liberation Serif'" stroke="none" xml:space="preserve">max</text>
    </g>
    <g fill="rgb(255,204,0)" text-rendering="geometricPrecision" shape-rendering="geometricPrecision" transform="matrix(1,0,0,1,-648,-668)" stroke="rgb(255,204,0)">
      <rect x="702.643" width="27.7734" height="11.6567" y="719.231" clip-path="url(#clipPath2)" stroke="none"/>
    </g>
    <g text-rendering="geometricPrecision" stroke-miterlimit="1.45" shape-rendering="geometricPrecision" transform="matrix(1,0,0,1,-648,-668)" stroke-linecap="butt">
      <rect fill="none" x="702.643" width="27.7734" height="11.6567" y="719.231" clip-path="url(#clipPath2)"/>
      <text x="709.6429" font-size="8px" y="727.9285" clip-path="url(#clipPath2)" font-family="'Liberation Serif'" stroke="none" xml:space="preserve">max</text>
    </g>
    <g fill="rgb(255,204,0)" text-rendering="geometricPrecision" shape-rendering="geometricPrecision" transform="matrix(1,0,0,1,-648,-668)" stroke="rgb(255,204,0)">
      <rect x="664.6883" width="18" height="11.6567" y="719.231" clip-path="url(#clipPath2)" stroke="none"/>
    </g>
    <g text-rendering="geometricPrecision" stroke-miterlimit="1.45" shape-rendering="geometricPrecision" transform="matrix(1,0,0,1,-648,-668)" stroke-linecap="butt">
      <rect fill="none" x="664.6883" width="18" height="11.6567" y="719.231" clip-path="url(#clipPath2)"/>
      <text x="671.6883" font-size="8px" y="727.9285" clip-path="url(#clipPath2)" font-family="'Liberation Serif'" stroke="none" xml:space="preserve">0</text>
    </g>
    <g fill="rgb(255,204,0)" text-rendering="geometricPrecision" shape-rendering="geometricPrecision" transform="matrix(1,0,0,1,-648,-668)" stroke="rgb(255,204,0)">
      <rect x="648.7127" width="47.1016" height="11.6567" y="748.0959" clip-path="url(#clipPath2)" stroke="none"/>
    </g>
    <g text-rendering="geometricPrecision" stroke-miterlimit="1.45" shape-rendering="geometricPrecision" transform="matrix(1,0,0,1,-648,-668)" stroke-linecap="butt">
      <rect fill="none" x="648.7127" width="47.1016" height="11.6567" y="748.0959" clip-path="url(#clipPath2)"/>
      <text x="655.7127" font-size="8px" y="756.7934" clip-path="url(#clipPath2)" font-family="'Liberation Serif'" stroke="none" xml:space="preserve">1 (yellow)</text>
    </g>
    <g fill="rgb(255,204,0)" text-rendering="geometricPrecision" shape-rendering="geometricPrecision" transform="matrix(1,0,0,1,-648,-668)" stroke="rgb(255,204,0)">
      <rect x="654.492" width="35.543" height="11.6567" y="778.0959" clip-path="url(#clipPath2)" stroke="none"/>
    </g>
    <g text-rendering="geometricPrecision" stroke-miterlimit="1.45" shape-rendering="geometricPrecision" transform="matrix(1,0,0,1,-648,-668)" stroke-linecap="butt">
      <rect fill="none" x="654.492" width="35.543" height="11.6567" y="778.0959" clip-path="url(#clipPath2)"/>
      <text x="661.492" font-size="8px" y="786.7934" clip-path="url(#clipPath2)" font-family="'Liberation Serif'" stroke="none" xml:space="preserve">2 (red)</text>
    </g>
    <g fill="rgb(255,204,0)" text-rendering="geometricPrecision" shape-rendering="geometricPrecision" transform="matrix(1,0,0,1,-648,-668)" stroke="rgb(255,204,0)">
      <rect x="648.7127" width="47.1016" height="11.6567" y="811.4264" clip-path="url(#clipPath2)" stroke="none"/>
    </g>
    <g text-rendering="geometricPrecision" stroke-miterlimit="1.45" shape-rendering="geometricPrecision" transform="matrix(1,0,0,1,-648,-668)" stroke-linecap="butt">
      <rect fill="none" x="648.7127" width="47.1016" height="11.6567" y="811.4264" clip-path="url(#clipPath2)"/>
      <text x="655.7127" font-size="8px" y="820.1238" clip-path="url(#clipPath2)" font-family="'Liberation Serif'" stroke="none" xml:space="preserve">3 (yellow)</text>
    </g>
    <g fill="rgb(255,204,0)" text-rendering="geometricPrecision" shape-rendering="geometricPrecision" transform="matrix(1,0,0,1,-648,-668)" stroke="rgb(255,204,0)">
      <rect x="703.307" width="26.4453" height="11.6567" y="811.4264" clip-path="url(#clipPath2)" stroke="none"/>
    </g>
    <g text-rendering="geometricPrecision" stroke-miterlimit="1.45" shape-rendering="geometricPrecision" transform="matrix(1,0,0,1,-648,-668)" stroke-linecap="butt">
      <rect fill="none" x="703.307" width="26.4453" height="11.6567" y="811.4264" clip-path="url(#clipPath2)"/>
      <text x="710.307" font-size="8px" y="820.1238" clip-path="url(#clipPath2)" font-family="'Liberation Serif'" stroke="none" xml:space="preserve">min</text>
    </g>
    <g fill="rgb(255,204,0)" text-rendering="geometricPrecision" shape-rendering="geometricPrecision" transform="matrix(1,0,0,1,-648,-668)" stroke="rgb(255,204,0)">
      <rect x="654.492" width="35.543" height="11.6567" y="844.7569" clip-path="url(#clipPath2)" stroke="none"/>
    </g>
    <g text-rendering="geometricPrecision" stroke-miterlimit="1.45" shape-rendering="geometricPrecision" transform="matrix(1,0,0,1,-648,-668)" stroke-linecap="butt">
      <rect fill="none" x="654.492" width="35.543" height="11.6567" y="844.7569" clip-path="url(#clipPath2)"/>
      <text x="661.492" font-size="8px" y="853.4543" clip-path="url(#clipPath2)" font-family="'Liberation Serif'" stroke="none" xml:space="preserve">4 (red)</text>
    </g>
    <g fill="olive" text-rendering="geometricPrecision" shape-rendering="geometricPrecision" transform="matrix(1,0,0,1,-648,-668)" stroke="olive">
      <rect x="974.8055" width="19.7773" height="13.6121" y="746.1405" clip-path="url(#clipPath2)" stroke="none"/>
    </g>
    <g text-rendering="geometricPrecision" stroke-miterlimit="1.45" shape-rendering="geometricPrecision" transform="matrix(1,0,0,1,-648,-668)" stroke-linecap="butt">
      <rect fill="none" x="974.8055" width="19.7773" height="13.6121" y="746.1405" clip-path="url(#clipPath2)"/>
      <text x="981.8055" font-size="8px" y="755.8157" clip-path="url(#clipPath2)" font-family="'Liberation Serif'" stroke="none" xml:space="preserve">G</text>
    </g>
    <g fill="maroon" text-rendering="geometricPrecision" shape-rendering="geometricPrecision" transform="matrix(1,0,0,1,-648,-668)" stroke="maroon">
      <rect x="854.3143" width="19.3359" height="15.5676" y="746.1405" clip-path="url(#clipPath2)" stroke="none"/>
    </g>
    <g text-rendering="geometricPrecision" stroke-miterlimit="1.45" shape-rendering="geometricPrecision" transform="matrix(1,0,0,1,-648,-668)" stroke-linecap="butt">
      <rect fill="none" x="854.3143" width="19.3359" height="15.5676" y="746.1405" clip-path="url(#clipPath2)"/>
      <text x="861.3143" font-size="8px" y="756.7934" clip-path="url(#clipPath2)" font-family="'Liberation Serif'" stroke="none" xml:space="preserve">B</text>
    </g>
    <g fill="silver" text-rendering="geometricPrecision" shape-rendering="geometricPrecision" transform="matrix(1,0,0,1,-648,-668)" stroke="silver">
      <rect x="915.4525" width="17.5508" height="15.5676" y="719.231" clip-path="url(#clipPath2)" stroke="none"/>
    </g>
    <g text-rendering="geometricPrecision" stroke-miterlimit="1.45" shape-rendering="geometricPrecision" transform="matrix(1,0,0,1,-648,-668)" stroke-linecap="butt">
      <rect fill="none" x="915.4525" width="17.5508" height="15.5676" y="719.231" clip-path="url(#clipPath2)"/>
      <text x="922.4525" font-size="8px" y="729.8839" clip-path="url(#clipPath2)" font-family="'Liberation Serif'" stroke="none" xml:space="preserve">?</text>
    </g>
    <g fill="olive" text-rendering="geometricPrecision" shape-rendering="geometricPrecision" transform="matrix(1,0,0,1,-648,-668)" stroke="olive">
      <rect x="974.8055" width="19.7773" height="13.6121" y="810.4487" clip-path="url(#clipPath2)" stroke="none"/>
    </g>
    <g text-rendering="geometricPrecision" stroke-miterlimit="1.45" shape-rendering="geometricPrecision" transform="matrix(1,0,0,1,-648,-668)" stroke-linecap="butt">
      <rect fill="none" x="974.8055" width="19.7773" height="13.6121" y="810.4487" clip-path="url(#clipPath2)"/>
      <text x="981.8055" font-size="8px" y="820.1238" clip-path="url(#clipPath2)" font-family="'Liberation Serif'" stroke="none" xml:space="preserve">G</text>
    </g>
    <g fill="maroon" text-rendering="geometricPrecision" shape-rendering="geometricPrecision" transform="matrix(1,0,0,1,-648,-668)" stroke="maroon">
      <rect x="1023.6942" width="19.3359" height="15.5676" y="810.4487" clip-path="url(#clipPath2)" stroke="none"/>
    </g>
    <g text-rendering="geometricPrecision" stroke-miterlimit="1.45" shape-rendering="geometricPrecision" transform="matrix(1,0,0,1,-648,-668)" stroke-linecap="butt">
      <rect fill="none" x="1023.6942" width="19.3359" height="15.5676" y="810.4487" clip-path="url(#clipPath2)"/>
      <text x="1030.6942" font-size="8px" y="821.1016" clip-path="url(#clipPath2)" font-family="'Liberation Serif'" stroke="none" xml:space="preserve">B</text>
    </g>
    <g fill="rgb(204,153,255)" text-rendering="geometricPrecision" shape-rendering="geometricPrecision" transform="matrix(1,0,0,1,-648,-668)" stroke="rgb(204,153,255)">
      <rect x="838.2476" width="63.6172" height="13.6121" y="778.0959" clip-path="url(#clipPath2)" stroke="none"/>
    </g>
    <g text-rendering="geometricPrecision" stroke-miterlimit="1.45" shape-rendering="geometricPrecision" transform="matrix(1,0,0,1,-648,-668)" stroke-linecap="butt">
      <rect fill="none" x="838.2476" width="63.6172" height="13.6121" y="778.0959" clip-path="url(#clipPath2)"/>
      <text x="845.2476" font-size="8px" y="787.7711" clip-path="url(#clipPath2)" font-family="'Liberation Serif'" stroke="none" xml:space="preserve">G = -1 - 0.0001</text>
    </g>
    <g fill="lime" text-rendering="geometricPrecision" shape-rendering="geometricPrecision" transform="matrix(1,0,0,1,-648,-668)" stroke="lime">
      <rect x="860.2427" width="28.4414" height="13.6121" y="840.1545" clip-path="url(#clipPath2)" stroke="none"/>
    </g>
    <g text-rendering="geometricPrecision" stroke-miterlimit="1.45" shape-rendering="geometricPrecision" transform="matrix(1,0,0,1,-648,-668)" stroke-linecap="butt">
      <rect fill="none" x="860.2427" width="28.4414" height="13.6121" y="840.1545" clip-path="url(#clipPath2)"/>
      <text x="867.2427" font-size="8px" y="849.8297" clip-path="url(#clipPath2)" font-family="'Liberation Serif'" stroke="none" xml:space="preserve">-1 G</text>
    </g>
    <g fill="rgb(255,102,0)" text-rendering="geometricPrecision" shape-rendering="geometricPrecision" transform="matrix(1,0,0,1,-648,-668)" stroke="rgb(255,102,0)">
      <rect x="788.5051" width="46.6602" height="15.5676" y="777.1182" clip-path="url(#clipPath2)" stroke="none"/>
    </g>
    <g text-rendering="geometricPrecision" stroke-miterlimit="1.45" shape-rendering="geometricPrecision" transform="matrix(1,0,0,1,-648,-668)" stroke-linecap="butt">
      <rect fill="none" x="788.5051" width="46.6602" height="15.5676" y="777.1182" clip-path="url(#clipPath2)"/>
      <text x="795.5051" font-size="8px" y="787.7711" clip-path="url(#clipPath2)" font-family="'Liberation Serif'" stroke="none" xml:space="preserve">B(col 1/6)</text>
      <rect fill="none" x="924.1998" width="175.0625" height="30" y="668.3971" clip-path="url(#clipPath2)"/>
      <text x="931.1998" font-size="8px" y="686.2662" clip-path="url(#clipPath2)" font-family="'Liberation Serif'" stroke="none" xml:space="preserve">If current gamer play well, opponent could no win</text>
      <rect fill="none" x="748.1103" width="160.625" height="30" y="668.3971" clip-path="url(#clipPath2)"/>
      <text x="755.1104" font-size="8px" y="686.2662" clip-path="url(#clipPath2)" font-family="'Liberation Serif'" stroke="none" xml:space="preserve">Bad branch. If the opponent play well he win </text>
    </g>
    <g fill="rgb(255,102,0)" text-rendering="geometricPrecision" shape-rendering="geometricPrecision" transform="matrix(1,0,0,1,-648,-668)" stroke="rgb(255,102,0)">
      <rect x="928.5573" width="19.3359" height="15.5676" y="776.8542" clip-path="url(#clipPath2)" stroke="none"/>
    </g>
    <g text-rendering="geometricPrecision" stroke-miterlimit="1.45" shape-rendering="geometricPrecision" transform="matrix(1,0,0,1,-648,-668)" stroke-linecap="butt">
      <rect fill="none" x="928.5573" width="19.3359" height="15.5676" y="776.8542" clip-path="url(#clipPath2)"/>
      <text x="935.5573" font-size="8px" y="787.5071" clip-path="url(#clipPath2)" font-family="'Liberation Serif'" stroke="none" xml:space="preserve">B</text>
    </g>
    <g fill="silver" text-rendering="geometricPrecision" shape-rendering="geometricPrecision" transform="matrix(1,0,0,1,-648,-668)" stroke="silver">
      <rect x="975.6942" width="18" height="15.5676" y="838.1991" clip-path="url(#clipPath2)" stroke="none"/>
    </g>
    <g text-rendering="geometricPrecision" stroke-miterlimit="1.45" shape-rendering="geometricPrecision" transform="matrix(1,0,0,1,-648,-668)" stroke-linecap="butt">
      <rect fill="none" x="975.6942" width="18" height="15.5676" y="838.1991" clip-path="url(#clipPath2)"/>
      <text x="982.6942" font-size="8px" y="848.8521" clip-path="url(#clipPath2)" font-family="'Liberation Serif'" stroke="none" xml:space="preserve">0</text>
    </g>
    <g fill="olive" text-rendering="geometricPrecision" shape-rendering="geometricPrecision" transform="matrix(1,0,0,1,-648,-668)" stroke="olive">
      <rect x="869.3945" width="19.7773" height="13.6121" y="808.9932" clip-path="url(#clipPath2)" stroke="none"/>
    </g>
    <g text-rendering="geometricPrecision" stroke-miterlimit="1.45" shape-rendering="geometricPrecision" transform="matrix(1,0,0,1,-648,-668)" stroke-linecap="butt">
      <rect fill="none" x="869.3945" width="19.7773" height="13.6121" y="808.9932" clip-path="url(#clipPath2)"/>
      <text x="876.3945" font-size="8px" y="818.6684" clip-path="url(#clipPath2)" font-family="'Liberation Serif'" stroke="none" xml:space="preserve">G</text>
    </g>
    <g fill="lime" text-rendering="geometricPrecision" shape-rendering="geometricPrecision" transform="matrix(1,0,0,1,-648,-668)" stroke="lime">
      <rect x="1000.1414" width="28.4414" height="13.6121" y="839.1768" clip-path="url(#clipPath2)" stroke="none"/>
    </g>
    <g text-rendering="geometricPrecision" stroke-miterlimit="1.45" shape-rendering="geometricPrecision" transform="matrix(1,0,0,1,-648,-668)" stroke-linecap="butt">
      <rect fill="none" x="1000.1414" width="28.4414" height="13.6121" y="839.1768" clip-path="url(#clipPath2)"/>
      <text x="1007.1414" font-size="8px" y="848.8521" clip-path="url(#clipPath2)" font-family="'Liberation Serif'" stroke="none" xml:space="preserve">-1 G</text>
    </g>
    <g fill="silver" text-rendering="geometricPrecision" shape-rendering="geometricPrecision" transform="matrix(1,0,0,1,-648,-668)" stroke="silver">
      <rect x="929.2252" width="18" height="15.5676" y="838.1991" clip-path="url(#clipPath2)" stroke="none"/>
    </g>
    <g text-rendering="geometricPrecision" stroke-miterlimit="1.45" shape-rendering="geometricPrecision" transform="matrix(1,0,0,1,-648,-668)" stroke-linecap="butt">
      <rect fill="none" x="929.2252" width="18" height="15.5676" y="838.1991" clip-path="url(#clipPath2)"/>
      <text x="936.2252" font-size="8px" y="848.8521" clip-path="url(#clipPath2)" font-family="'Liberation Serif'" stroke="none" xml:space="preserve">0</text>
      <rect stroke-linecap="square" x="1038.9978" y="839.1768" clip-path="url(#clipPath2)" width="18" height="13.6121" stroke="none" stroke-miterlimit="10"/>
      <rect fill="none" x="1038.9978" width="18" height="13.6121" y="839.1768" clip-path="url(#clipPath2)"/>
    </g>
    <g stroke-linecap="butt" font-size="8px" transform="matrix(1,0,0,1,-648,-668)" fill="white" text-rendering="geometricPrecision" font-family="'Liberation Serif'" shape-rendering="geometricPrecision" stroke="white" stroke-miterlimit="1.45">
      <text x="1041.3298" xml:space="preserve" y="848.8521" clip-path="url(#clipPath2)" stroke="none">_  B</text>
    </g>
    <g fill="olive" text-rendering="geometricPrecision" shape-rendering="geometricPrecision" transform="matrix(1,0,0,1,-648,-668)" stroke="olive">
      <rect x="1083.185" width="123.5156" height="13.6121" y="734.9297" clip-path="url(#clipPath2)" stroke="none"/>
    </g>
    <g text-rendering="geometricPrecision" stroke-miterlimit="1.45" shape-rendering="geometricPrecision" transform="matrix(1,0,0,1,-648,-668)" stroke-linecap="butt">
      <rect fill="none" x="1083.185" width="123.5156" height="13.6121" y="734.9297" clip-path="url(#clipPath2)"/>
      <text x="1090.1851" font-size="8px" y="744.6049" clip-path="url(#clipPath2)" font-family="'Liberation Serif'" stroke="none" xml:space="preserve">G: current gamer play well (good)</text>
    </g>
    <g fill="lime" text-rendering="geometricPrecision" shape-rendering="geometricPrecision" transform="matrix(1,0,0,1,-648,-668)" stroke="lime">
      <rect x="1083.185" width="130.6367" height="13.6121" y="767.7343" clip-path="url(#clipPath2)" stroke="none"/>
    </g>
    <g text-rendering="geometricPrecision" stroke-miterlimit="1.45" shape-rendering="geometricPrecision" transform="matrix(1,0,0,1,-648,-668)" stroke-linecap="butt">
      <rect fill="none" x="1083.185" width="130.6367" height="13.6121" y="767.7343" clip-path="url(#clipPath2)"/>
      <text x="1090.1851" font-size="8px" y="777.4095" clip-path="url(#clipPath2)" font-family="'Liberation Serif'" stroke="none" xml:space="preserve">G: opponent gamer play well (good)</text>
    </g>
    <g fill="rgb(255,102,0)" text-rendering="geometricPrecision" shape-rendering="geometricPrecision" transform="matrix(1,0,0,1,-648,-668)" stroke="rgb(255,102,0)">
      <rect x="1096.1811" width="104.6445" height="15.5676" y="781.3464" clip-path="url(#clipPath2)" stroke="none"/>
    </g>
    <g text-rendering="geometricPrecision" stroke-miterlimit="1.45" shape-rendering="geometricPrecision" transform="matrix(1,0,0,1,-648,-668)" stroke-linecap="butt">
      <rect fill="none" x="1096.1811" width="104.6445" height="15.5676" y="781.3464" clip-path="url(#clipPath2)"/>
      <text x="1103.1812" font-size="8px" y="791.9993" clip-path="url(#clipPath2)" font-family="'Liberation Serif'" stroke="none" xml:space="preserve">B: opponent gamer play bad</text>
    </g>
    <g fill="maroon" text-rendering="geometricPrecision" shape-rendering="geometricPrecision" transform="matrix(1,0,0,1,-648,-668)" stroke="maroon">
      <rect x="1096.1811" width="97.5234" height="15.5676" y="748.5418" clip-path="url(#clipPath2)" stroke="none"/>
    </g>
    <g text-rendering="geometricPrecision" stroke-miterlimit="1.45" shape-rendering="geometricPrecision" transform="matrix(1,0,0,1,-648,-668)" stroke-linecap="butt">
      <rect fill="none" x="1096.1811" width="97.5234" height="15.5676" y="748.5418" clip-path="url(#clipPath2)"/>
      <text x="1103.1812" font-size="8px" y="759.1948" clip-path="url(#clipPath2)" font-family="'Liberation Serif'" stroke="none" xml:space="preserve">B: current gamer play bad</text>
    </g>
    <g fill="silver" text-rendering="geometricPrecision" shape-rendering="geometricPrecision" transform="matrix(1,0,0,1,-648,-668)" stroke="silver">
      <rect x="1093.7299" width="109.5469" height="15.5676" y="835.2659" clip-path="url(#clipPath2)" stroke="none"/>
    </g>
    <g text-rendering="geometricPrecision" stroke-miterlimit="1.45" shape-rendering="geometricPrecision" transform="matrix(1,0,0,1,-648,-668)" stroke-linecap="butt">
      <rect fill="none" x="1093.7299" width="109.5469" height="15.5676" y="835.2659" clip-path="url(#clipPath2)"/>
      <text x="1100.73" font-size="8px" y="845.9189" clip-path="url(#clipPath2)" font-family="'Liberation Serif'" stroke="none" xml:space="preserve">0 : nobody win and could win</text>
    </g>
    <g fill="lime" text-rendering="geometricPrecision" shape-rendering="geometricPrecision" transform="matrix(1,0,0,1,-648,-668)" stroke="lime">
      <rect x="1063.548" width="164.4023" height="13.6121" y="851.8112" clip-path="url(#clipPath2)" stroke="none"/>
    </g>
    <g text-rendering="geometricPrecision" stroke-miterlimit="1.45" shape-rendering="geometricPrecision" transform="matrix(1,0,0,1,-648,-668)" stroke-linecap="butt">
      <rect fill="none" x="1063.548" width="164.4023" height="13.6121" y="851.8112" clip-path="url(#clipPath2)"/>
      <text x="1070.548" font-size="8px" y="861.4865" clip-path="url(#clipPath2)" font-family="'Liberation Serif'" stroke="none" xml:space="preserve">-1 G: oppenent gamer play well and win(good)</text>
      <circle fill="none" r="6.4918" clip-path="url(#clipPath2)" cx="1349.9077" cy="813.9277"/>
    </g>
    <g fill="red" text-rendering="geometricPrecision" shape-rendering="geometricPrecision" transform="matrix(1,0,0,1,-648,-668)" stroke="red">
      <circle r="6.4918" clip-path="url(#clipPath2)" cx="1371.7735" cy="813.9277" stroke="none"/>
    </g>
    <g text-rendering="geometricPrecision" stroke-miterlimit="1.45" shape-rendering="geometricPrecision" transform="matrix(1,0,0,1,-648,-668)" stroke-linecap="butt">
      <circle fill="none" r="6.4918" clip-path="url(#clipPath2)" cx="1371.7735" cy="813.9277"/>
      <circle fill="none" r="6.4918" clip-path="url(#clipPath2)" cx="1328.7899" cy="813.9277"/>
      <circle fill="none" r="6.4918" clip-path="url(#clipPath2)" cx="1414.0091" cy="813.9277"/>
      <circle fill="none" r="6.4918" clip-path="url(#clipPath2)" cx="1435.875" cy="813.9277"/>
    </g>
    <g fill="red" text-rendering="geometricPrecision" shape-rendering="geometricPrecision" transform="matrix(1,0,0,1,-648,-668)" stroke="red">
      <circle r="6.4918" clip-path="url(#clipPath2)" cx="1392.8913" cy="813.9277" stroke="none"/>
    </g>
    <g text-rendering="geometricPrecision" stroke-miterlimit="1.45" shape-rendering="geometricPrecision" transform="matrix(1,0,0,1,-648,-668)" stroke-linecap="butt">
      <circle fill="none" r="6.4918" clip-path="url(#clipPath2)" cx="1392.8913" cy="813.9277"/>
    </g>
    <g fill="yellow" text-rendering="geometricPrecision" shape-rendering="geometricPrecision" transform="matrix(1,0,0,1,-648,-668)" stroke="yellow">
      <circle r="6.4918" clip-path="url(#clipPath2)" cx="1307.6721" cy="813.9277" stroke="none"/>
    </g>
    <g text-rendering="geometricPrecision" stroke-miterlimit="1.45" shape-rendering="geometricPrecision" transform="matrix(1,0,0,1,-648,-668)" stroke-linecap="butt">
      <circle fill="none" r="6.4918" clip-path="url(#clipPath2)" cx="1307.6721" cy="813.9277"/>
      <circle fill="none" r="6.4918" clip-path="url(#clipPath2)" cx="1349.9077" cy="796.4606"/>
      <circle fill="none" r="6.4918" clip-path="url(#clipPath2)" cx="1371.7735" cy="796.4606"/>
      <circle fill="none" r="6.4918" clip-path="url(#clipPath2)" cx="1328.7899" cy="796.4606"/>
      <circle fill="none" r="6.4918" clip-path="url(#clipPath2)" cx="1414.0091" cy="796.4606"/>
      <circle fill="none" r="6.4918" clip-path="url(#clipPath2)" cx="1435.875" cy="796.4606"/>
      <circle fill="none" r="6.4918" clip-path="url(#clipPath2)" cx="1392.8913" cy="796.4606"/>
      <circle fill="none" r="6.4918" clip-path="url(#clipPath2)" cx="1307.6721" cy="796.4606"/>
      <circle fill="none" r="6.4918" clip-path="url(#clipPath2)" cx="1349.9077" cy="778.9009"/>
      <circle fill="none" r="6.4918" clip-path="url(#clipPath2)" cx="1371.7735" cy="778.9009"/>
      <circle fill="none" r="6.4918" clip-path="url(#clipPath2)" cx="1328.7899" cy="778.9009"/>
      <circle fill="none" r="6.4918" clip-path="url(#clipPath2)" cx="1414.0091" cy="778.9009"/>
      <circle fill="none" r="6.4918" clip-path="url(#clipPath2)" cx="1435.875" cy="778.9009"/>
      <circle fill="none" r="6.4918" clip-path="url(#clipPath2)" cx="1392.8913" cy="778.9009"/>
      <circle fill="none" r="6.4918" clip-path="url(#clipPath2)" cx="1349.9077" cy="761.4337"/>
      <circle fill="none" r="6.4918" clip-path="url(#clipPath2)" cx="1371.7735" cy="761.4337"/>
      <circle fill="none" r="6.4918" clip-path="url(#clipPath2)" cx="1328.7899" cy="761.4337"/>
      <circle fill="none" r="6.4918" clip-path="url(#clipPath2)" cx="1414.0091" cy="761.4337"/>
      <circle fill="none" r="6.4918" clip-path="url(#clipPath2)" cx="1435.875" cy="761.4337"/>
      <circle fill="none" r="6.4918" clip-path="url(#clipPath2)" cx="1392.8913" cy="761.4337"/>
      <circle fill="none" r="6.4918" clip-path="url(#clipPath2)" cx="1307.6721" cy="778.9009"/>
      <circle fill="none" r="6.4918" clip-path="url(#clipPath2)" cx="1349.9077" cy="743.9666"/>
      <circle fill="none" r="6.4918" clip-path="url(#clipPath2)" cx="1371.7735" cy="743.9666"/>
      <circle fill="none" r="6.4918" clip-path="url(#clipPath2)" cx="1328.7899" cy="743.9666"/>
      <circle fill="none" r="6.4918" clip-path="url(#clipPath2)" cx="1414.0091" cy="743.9666"/>
      <circle fill="none" r="6.4918" clip-path="url(#clipPath2)" cx="1435.875" cy="743.9666"/>
      <circle fill="none" r="6.4918" clip-path="url(#clipPath2)" cx="1392.8913" cy="743.9666"/>
      <circle fill="none" r="6.4918" clip-path="url(#clipPath2)" cx="1307.6721" cy="743.9666"/>
      <circle fill="none" r="6.4918" clip-path="url(#clipPath2)" cx="1349.9077" cy="726.4995"/>
      <circle fill="none" r="6.4918" clip-path="url(#clipPath2)" cx="1371.7735" cy="726.4995"/>
      <circle fill="none" r="6.4918" clip-path="url(#clipPath2)" cx="1328.7899" cy="726.4995"/>
      <circle fill="none" r="6.4918" clip-path="url(#clipPath2)" cx="1414.0091" cy="726.4995"/>
      <circle fill="none" r="6.4918" clip-path="url(#clipPath2)" cx="1435.875" cy="726.4995"/>
      <circle fill="none" r="6.4918" clip-path="url(#clipPath2)" cx="1392.8913" cy="726.4995"/>
      <circle fill="none" r="6.4918" clip-path="url(#clipPath2)" cx="1307.6721" cy="726.4995"/>
      <rect fill="none" x="1344.1639" width="51.3242" height="30" y="679.4229" clip-path="url(#clipPath2)"/>
      <text x="1351.1639" font-size="8px" y="697.2921" clip-path="url(#clipPath2)" font-family="'Liberation Serif'" stroke="none" xml:space="preserve">Start by red</text>
      <rect fill="none" x="1280.3239" width="203.0625" height="30" y="843.6173" clip-path="url(#clipPath2)"/>
      <text x="1287.324" font-size="8px" y="857.0568" clip-path="url(#clipPath2)" font-family="'Liberation Serif'" stroke="none" xml:space="preserve">Yellow should play here otherwise in twice turns red could</text>
      <text x="1350.7458" font-size="8px" y="865.9161" clip-path="url(#clipPath2)" font-family="'Liberation Serif'" stroke="none" xml:space="preserve">win if it plays good</text>
      <rect stroke-linecap="square" x="1086.9978" y="813.8283" clip-path="url(#clipPath2)" width="118.7617" height="8.8083" stroke="none" stroke-miterlimit="10"/>
      <rect fill="none" x="1086.9978" width="118.7617" height="8.8083" y="813.8283" clip-path="url(#clipPath2)"/>
    </g>
    <g stroke-linecap="butt" font-size="8px" transform="matrix(1,0,0,1,-648,-668)" fill="white" text-rendering="geometricPrecision" font-family="'Liberation Serif'" shape-rendering="geometricPrecision" stroke="white" stroke-miterlimit="1.45">
      <text x="1093.9978" xml:space="preserve" y="821.1016" clip-path="url(#clipPath2)" stroke="none">_ B: can't exist thanks min / max</text>
    </g>
    <g text-rendering="geometricPrecision" shape-rendering="geometricPrecision" transform="matrix(1,0,0,1,-648,-668)">
      <rect x="892.6793" width="18" height="13.6121" y="840.1545" clip-path="url(#clipPath2)" stroke="none"/>
      <rect stroke-linecap="butt" x="892.6793" y="840.1545" clip-path="url(#clipPath2)" fill="none" width="18" height="13.6121" stroke-miterlimit="1.45"/>
    </g>
    <g stroke-linecap="butt" font-size="8px" transform="matrix(1,0,0,1,-648,-668)" fill="white" text-rendering="geometricPrecision" font-family="'Liberation Serif'" shape-rendering="geometricPrecision" stroke="white" stroke-miterlimit="1.45">
      <text x="895.0113" xml:space="preserve" y="849.8297" clip-path="url(#clipPath2)" stroke="none">_  B</text>
    </g>
    <g fill="maroon" text-rendering="geometricPrecision" shape-rendering="geometricPrecision" transform="matrix(1,0,0,1,-648,-668)" stroke="maroon">
      <rect x="843.3433" width="19.3359" height="15.5676" y="808.1475" clip-path="url(#clipPath2)" stroke="none"/>
    </g>
    <g text-rendering="geometricPrecision" stroke-miterlimit="1.45" shape-rendering="geometricPrecision" transform="matrix(1,0,0,1,-648,-668)" stroke-linecap="butt">
      <rect fill="none" x="843.3433" width="19.3359" height="15.5676" y="808.1475" clip-path="url(#clipPath2)"/>
      <text x="850.3433" font-size="8px" y="818.8004" clip-path="url(#clipPath2)" font-family="'Liberation Serif'" stroke="none" xml:space="preserve">B</text>
    </g>
    <g fill="maroon" text-rendering="geometricPrecision" shape-rendering="geometricPrecision" transform="matrix(1,0,0,1,-648,-668)" stroke="maroon">
      <rect x="813.0873" width="19.3359" height="15.5676" y="808.1475" clip-path="url(#clipPath2)" stroke="none"/>
    </g>
    <g text-rendering="geometricPrecision" stroke-miterlimit="1.45" shape-rendering="geometricPrecision" transform="matrix(1,0,0,1,-648,-668)" stroke-linecap="butt">
      <rect fill="none" x="813.0873" width="19.3359" height="15.5676" y="808.1475" clip-path="url(#clipPath2)"/>
      <text x="820.0873" font-size="8px" y="818.8004" clip-path="url(#clipPath2)" font-family="'Liberation Serif'" stroke="none" xml:space="preserve">B</text>
    </g>
    <g fill="lime" text-rendering="geometricPrecision" shape-rendering="geometricPrecision" transform="matrix(1,0,0,1,-648,-668)" stroke="lime">
      <rect x="810.9531" width="28.4414" height="13.6121" y="839.1768" clip-path="url(#clipPath2)" stroke="none"/>
    </g>
    <g text-rendering="geometricPrecision" stroke-miterlimit="1.45" shape-rendering="geometricPrecision" transform="matrix(1,0,0,1,-648,-668)" stroke-linecap="butt">
      <rect fill="none" x="810.9531" width="28.4414" height="13.6121" y="839.1768" clip-path="url(#clipPath2)"/>
      <text x="817.9531" font-size="8px" y="848.8521" clip-path="url(#clipPath2)" font-family="'Liberation Serif'" stroke="none" xml:space="preserve">-1 G</text>
    </g>
    <g fill="rgb(255,102,0)" text-rendering="geometricPrecision" shape-rendering="geometricPrecision" transform="matrix(1,0,0,1,-648,-668)" stroke="rgb(255,102,0)">
      <rect x="743.0244" width="41.1094" height="15.5676" y="777.1182" clip-path="url(#clipPath2)" stroke="none"/>
    </g>
    <g text-rendering="geometricPrecision" stroke-miterlimit="1.45" shape-rendering="geometricPrecision" transform="matrix(1,0,0,1,-648,-668)" stroke-linecap="butt">
      <rect fill="none" x="743.0244" width="41.1094" height="15.5676" y="777.1182" clip-path="url(#clipPath2)"/>
      <text x="750.0244" font-size="8px" y="787.7711" clip-path="url(#clipPath2)" font-family="'Liberation Serif'" stroke="none" xml:space="preserve">B (l 3/4)</text>
    </g>
    <g fill="silver" text-rendering="geometricPrecision" shape-rendering="geometricPrecision" transform="matrix(1,0,0,1,-648,-668)" stroke="silver">
      <rect x="754.1672" width="18" height="15.5676" y="807.1698" clip-path="url(#clipPath2)" stroke="none"/>
    </g>
    <g text-rendering="geometricPrecision" stroke-miterlimit="1.45" shape-rendering="geometricPrecision" transform="matrix(1,0,0,1,-648,-668)" stroke-linecap="butt">
      <rect fill="none" x="754.1672" width="18" height="15.5676" y="807.1698" clip-path="url(#clipPath2)"/>
      <text x="761.1672" font-size="8px" y="817.8227" clip-path="url(#clipPath2)" font-family="'Liberation Serif'" stroke="none" xml:space="preserve">0</text>
    </g>
    <g fill="silver" text-rendering="geometricPrecision" shape-rendering="geometricPrecision" transform="matrix(1,0,0,1,-648,-668)" stroke="silver">
      <rect x="754.1672" width="18" height="15.5676" y="838.1991" clip-path="url(#clipPath2)" stroke="none"/>
    </g>
    <g text-rendering="geometricPrecision" stroke-miterlimit="1.45" shape-rendering="geometricPrecision" transform="matrix(1,0,0,1,-648,-668)" stroke-linecap="butt">
      <rect fill="none" x="754.1672" width="18" height="15.5676" y="838.1991" clip-path="url(#clipPath2)"/>
      <text x="761.1672" font-size="8px" y="848.8521" clip-path="url(#clipPath2)" font-family="'Liberation Serif'" stroke="none" xml:space="preserve">0</text>
    </g>
    <g fill="olive" text-rendering="geometricPrecision" shape-rendering="geometricPrecision" transform="matrix(1,0,0,1,-648,-668)" stroke="olive">
      <rect x="783.2785" width="19.7773" height="13.6121" y="808.1475" clip-path="url(#clipPath2)" stroke="none"/>
    </g>
    <g text-rendering="geometricPrecision" stroke-miterlimit="1.45" shape-rendering="geometricPrecision" transform="matrix(1,0,0,1,-648,-668)" stroke-linecap="butt">
      <rect fill="none" x="783.2785" width="19.7773" height="13.6121" y="808.1475" clip-path="url(#clipPath2)"/>
      <text x="790.2785" font-size="8px" y="817.8227" clip-path="url(#clipPath2)" font-family="'Liberation Serif'" stroke="none" xml:space="preserve">G</text>
    </g>
    <g fill="silver" text-rendering="geometricPrecision" shape-rendering="geometricPrecision" transform="matrix(1,0,0,1,-648,-668)" stroke="silver">
      <rect x="784.1672" width="18" height="15.5676" y="838.1991" clip-path="url(#clipPath2)" stroke="none"/>
    </g>
    <g text-rendering="geometricPrecision" stroke-miterlimit="1.45" shape-rendering="geometricPrecision" transform="matrix(1,0,0,1,-648,-668)" stroke-linecap="butt">
      <rect fill="none" x="784.1672" width="18" height="15.5676" y="838.1991" clip-path="url(#clipPath2)"/>
      <text x="791.1672" font-size="8px" y="848.8521" clip-path="url(#clipPath2)" font-family="'Liberation Serif'" stroke="none" xml:space="preserve">0</text>
      <rect stroke-linecap="square" x="838.2476" y="839.1768" clip-path="url(#clipPath2)" width="18" height="13.6121" stroke="none" stroke-miterlimit="10"/>
      <rect fill="none" x="838.2476" width="18" height="13.6121" y="839.1768" clip-path="url(#clipPath2)"/>
    </g>
    <g stroke-linecap="butt" font-size="8px" transform="matrix(1,0,0,1,-648,-668)" fill="white" text-rendering="geometricPrecision" font-family="'Liberation Serif'" shape-rendering="geometricPrecision" stroke="white" stroke-miterlimit="1.45">
      <text x="840.5796" xml:space="preserve" y="848.8521" clip-path="url(#clipPath2)" stroke="none">_  B</text>
    </g>
    <g text-rendering="geometricPrecision" stroke-miterlimit="1.45" shape-rendering="geometricPrecision" transform="matrix(1,0,0,1,-648,-668)" stroke-linecap="butt">
      <circle fill="none" r="6.4918" clip-path="url(#clipPath2)" cx="1307.6721" cy="761.4337"/>
    </g>
    <g fill="rgb(204,153,255)" text-rendering="geometricPrecision" shape-rendering="geometricPrecision" transform="matrix(1,0,0,1,-648,-668)" stroke="rgb(204,153,255)">
      <rect x="1052.4405" width="186.6172" height="13.6121" y="875.9446" clip-path="url(#clipPath2)" stroke="none"/>
    </g>
    <g text-rendering="geometricPrecision" stroke-miterlimit="1.45" shape-rendering="geometricPrecision" transform="matrix(1,0,0,1,-648,-668)" stroke-linecap="butt">
      <rect fill="none" x="1052.4405" width="186.6172" height="13.6121" y="875.9446" clip-path="url(#clipPath2)"/>
      <text x="1059.4406" font-size="8px" y="885.6198" clip-path="url(#clipPath2)" font-family="'Liberation Serif'" stroke="none" xml:space="preserve">G (-1): as all childs has -1 value, become -1 - 0.00001</text>
    </g>
    <g fill="olive" text-rendering="geometricPrecision" shape-rendering="geometricPrecision" transform="matrix(1,0,0,1,-648,-668)" stroke="olive">
      <rect x="973.9168" width="19.7773" height="13.6121" y="778.2946" clip-path="url(#clipPath2)" stroke="none"/>
    </g>
    <g text-rendering="geometricPrecision" stroke-miterlimit="1.45" shape-rendering="geometricPrecision" transform="matrix(1,0,0,1,-648,-668)" stroke-linecap="butt">
      <rect fill="none" x="973.9168" width="19.7773" height="13.6121" y="778.2946" clip-path="url(#clipPath2)"/>
      <text x="980.9168" font-size="8px" y="787.9698" clip-path="url(#clipPath2)" font-family="'Liberation Serif'" stroke="none" xml:space="preserve">G</text>
      <path fill="none" d="M915.4525 730.9344 L873.6503 749.6059" clip-path="url(#clipPath2)"/>
      <path fill="none" d="M933.0033 730.7783 L974.8055 748.7056" clip-path="url(#clipPath2)"/>
      <path fill="none" d="M865.5085 761.708 L868.7217 778.0959" clip-path="url(#clipPath2)"/>
      <path fill="none" d="M854.3143 759.6674 L824.9382 777.1182" clip-path="url(#clipPath2)"/>
      <path fill="none" d="M1012.1413 698.3971 L1013.3281 741.7984" clip-path="url(#clipPath2)"/>
      <path fill="none" d="M828.7602 698.3971 L829.7357 741.7768" clip-path="url(#clipPath2)"/>
      <path fill="none" d="M974.8055 759.6905 L947.8932 778.0445" clip-path="url(#clipPath2)"/>
      <path fill="none" d="M984.6942 824.0608 L984.6942 838.1991" clip-path="url(#clipPath2)"/>
      <path fill="none" d="M872.0887 791.708 L877.2507 808.9932" clip-path="url(#clipPath2)"/>
      <path fill="none" d="M878.2305 822.6053 L875.5161 840.1545" clip-path="url(#clipPath2)"/>
      <path fill="none" d="M1028.0328 826.0162 L1019.0221 839.1768" clip-path="url(#clipPath2)"/>
      <path fill="none" d="M938.2252 792.4217 L938.2252 838.1991" clip-path="url(#clipPath2)"/>
      <path fill="none" d="M1037.4673 826.0162 L1044.4082 839.1768" clip-path="url(#clipPath2)"/>
      <path fill="none" d="M1353.683 819.2089 L1371.1321 843.6173" clip-path="url(#clipPath2)"/>
      <path fill="none" d="M1410.2177 819.1973 L1392.6476 843.6173" clip-path="url(#clipPath2)"/>
      <path fill="none" d="M884.1748 822.6053 L896.7877 840.1545" clip-path="url(#clipPath2)"/>
      <path fill="none" d="M866.3175 791.708 L857.287 808.1475" clip-path="url(#clipPath2)"/>
      <path fill="none" d="M858.3926 823.715 L869.7581 840.1545" clip-path="url(#clipPath2)"/>
      <path fill="none" d="M814.5745 792.6857 L820.0159 808.1475" clip-path="url(#clipPath2)"/>
      <path fill="none" d="M823.3817 823.715 L824.626 839.1768" clip-path="url(#clipPath2)"/>
      <path fill="none" d="M854.3143 756.9071 L784.1338 778.5601" clip-path="url(#clipPath2)"/>
      <path fill="none" d="M763.4724 792.6857 L763.2739 807.1698" clip-path="url(#clipPath2)"/>
      <path fill="none" d="M763.1672 822.7374 L763.1672 838.1991" clip-path="url(#clipPath2)"/>
      <path fill="none" d="M806.9999 792.6857 L797.3951 808.1475" clip-path="url(#clipPath2)"/>
      <path fill="none" d="M793.1672 821.7596 L793.1672 838.1991" clip-path="url(#clipPath2)"/>
      <path fill="none" d="M829.0991 823.715 L841.7006 839.1768" clip-path="url(#clipPath2)"/>
      <path fill="none" d="M851.5184 823.715 L848.5529 839.1768" clip-path="url(#clipPath2)"/>
      <path fill="none" d="M984.506 759.7526 L983.9936 778.2946" clip-path="url(#clipPath2)"/>
      <path fill="none" d="M983.9936 791.9067 L984.506 810.4487" clip-path="url(#clipPath2)"/>
      <path fill="none" d="M993.6942 791.7119 L1023.6942 811.7688" clip-path="url(#clipPath2)"/>
    </g>
  </g>
</svg>
