<?xml version="1.0" encoding="UTF-8"?><svg xmlns="http://www.w3.org/2000/svg" xmlns:xlink="http://www.w3.org/1999/xlink" fill-opacity="1" color-rendering="auto" color-interpolation="auto" text-rendering="auto" stroke="black" stroke-linecap="square" width="518" stroke-miterlimit="10" shape-rendering="auto" stroke-opacity="1" fill="black" stroke-dasharray="none" font-weight="normal" stroke-width="1" height="74" font-family="'Dialog'" font-style="normal" stroke-linejoin="miter" font-size="12px" stroke-dashoffset="0" image-rendering="auto">
  <!--Generated by ySVG 2.5-->
  <defs id="genericDefs"/>
  <g>
    <defs id="defs1">
      <clipPath clipPathUnits="userSpaceOnUse" id="clipPath1">
        <path d="M0 0 L518 0 L518 74 L0 74 L0 0 Z"/>
      </clipPath>
      <clipPath clipPathUnits="userSpaceOnUse" id="clipPath2">
        <path d="M757 505 L1275 505 L1275 579 L757 579 L757 505 Z"/>
      </clipPath>
    </defs>
    <g fill="white" text-rendering="geometricPrecision" shape-rendering="geometricPrecision" transform="translate(-757,-505)" stroke="white">
      <rect x="757" width="518" height="74" y="505" clip-path="url(#clipPath2)" stroke="none"/>
    </g>
    <g fill="rgb(255,204,0)" text-rendering="geometricPrecision" shape-rendering="geometricPrecision" transform="matrix(1,0,0,1,-757,-505)" stroke="rgb(255,204,0)">
      <rect x="790.9011" width="26.4453" height="11.6567" y="534.6691" clip-path="url(#clipPath2)" stroke="none"/>
    </g>
    <g text-rendering="geometricPrecision" stroke-miterlimit="1.45" shape-rendering="geometricPrecision" transform="matrix(1,0,0,1,-757,-505)" stroke-linecap="butt">
      <rect fill="none" x="790.9011" width="26.4453" height="11.6567" y="534.6691" clip-path="url(#clipPath2)"/>
      <text x="797.9011" font-size="8px" y="543.3666" clip-path="url(#clipPath2)" font-family="'Liberation Serif'" stroke="none" xml:space="preserve">min</text>
    </g>
    <g fill="rgb(255,204,0)" text-rendering="geometricPrecision" shape-rendering="geometricPrecision" transform="matrix(1,0,0,1,-757,-505)" stroke="rgb(255,204,0)">
      <rect x="790.237" width="27.7734" height="11.6567" y="505.8042" clip-path="url(#clipPath2)" stroke="none"/>
    </g>
    <g text-rendering="geometricPrecision" stroke-miterlimit="1.45" shape-rendering="geometricPrecision" transform="matrix(1,0,0,1,-757,-505)" stroke-linecap="butt">
      <rect fill="none" x="790.237" width="27.7734" height="11.6567" y="505.8042" clip-path="url(#clipPath2)"/>
      <text x="797.237" font-size="8px" y="514.5017" clip-path="url(#clipPath2)" font-family="'Liberation Serif'" stroke="none" xml:space="preserve">max</text>
    </g>
    <g fill="rgb(255,204,0)" text-rendering="geometricPrecision" shape-rendering="geometricPrecision" transform="matrix(1,0,0,1,-757,-505)" stroke="rgb(255,204,0)">
      <rect x="760.3192" width="18" height="11.6567" y="505.8042" clip-path="url(#clipPath2)" stroke="none"/>
    </g>
    <g text-rendering="geometricPrecision" stroke-miterlimit="1.45" shape-rendering="geometricPrecision" transform="matrix(1,0,0,1,-757,-505)" stroke-linecap="butt">
      <rect fill="none" x="760.3192" width="18" height="11.6567" y="505.8042" clip-path="url(#clipPath2)"/>
      <text x="767.3192" font-size="8px" y="514.5017" clip-path="url(#clipPath2)" font-family="'Liberation Serif'" stroke="none" xml:space="preserve">0</text>
    </g>
    <g fill="rgb(255,204,0)" text-rendering="geometricPrecision" shape-rendering="geometricPrecision" transform="matrix(1,0,0,1,-757,-505)" stroke="rgb(255,204,0)">
      <rect x="758.8944" width="18" height="11.6567" y="534.6691" clip-path="url(#clipPath2)" stroke="none"/>
    </g>
    <g text-rendering="geometricPrecision" stroke-miterlimit="1.45" shape-rendering="geometricPrecision" transform="matrix(1,0,0,1,-757,-505)" stroke-linecap="butt">
      <rect fill="none" x="758.8944" width="18" height="11.6567" y="534.6691" clip-path="url(#clipPath2)"/>
      <text x="765.8943" font-size="8px" y="543.3666" clip-path="url(#clipPath2)" font-family="'Liberation Serif'" stroke="none" xml:space="preserve">1</text>
    </g>
    <g fill="rgb(255,204,0)" text-rendering="geometricPrecision" shape-rendering="geometricPrecision" transform="matrix(1,0,0,1,-757,-505)" stroke="rgb(255,204,0)">
      <rect x="757.8944" width="20" height="11.6567" y="564.6691" clip-path="url(#clipPath2)" stroke="none"/>
    </g>
    <g text-rendering="geometricPrecision" stroke-miterlimit="1.45" shape-rendering="geometricPrecision" transform="matrix(1,0,0,1,-757,-505)" stroke-linecap="butt">
      <rect fill="none" x="757.8944" width="20" height="11.6567" y="564.6691" clip-path="url(#clipPath2)"/>
      <text x="764.8943" font-size="8px" y="573.3666" clip-path="url(#clipPath2)" font-family="'Liberation Serif'" stroke="none" xml:space="preserve">2 </text>
    </g>
    <g fill="olive" text-rendering="geometricPrecision" shape-rendering="geometricPrecision" transform="matrix(1,0,0,1,-757,-505)" stroke="olive">
      <rect x="969.7242" width="41.1094" height="20.4041" y="529.3177" clip-path="url(#clipPath2)" stroke="none"/>
    </g>
    <g text-rendering="geometricPrecision" stroke-miterlimit="1.45" shape-rendering="geometricPrecision" transform="matrix(1,0,0,1,-757,-505)" stroke-linecap="butt">
      <rect fill="none" x="969.7242" width="41.1094" height="20.4041" y="529.3177" clip-path="url(#clipPath2)"/>
      <text x="971.6168" font-size="8px" y="542.3889" clip-path="url(#clipPath2)" font-family="'Liberation Serif'" stroke="none" xml:space="preserve">1 (no child)</text>
    </g>
    <g fill="silver" text-rendering="geometricPrecision" shape-rendering="geometricPrecision" transform="matrix(1,0,0,1,-757,-505)" stroke="silver">
      <rect x="1081.9753" width="17.5508" height="15.5676" y="505.8042" clip-path="url(#clipPath2)" stroke="none"/>
    </g>
    <g text-rendering="geometricPrecision" stroke-miterlimit="1.45" shape-rendering="geometricPrecision" transform="matrix(1,0,0,1,-757,-505)" stroke-linecap="butt">
      <rect fill="none" x="1081.9753" width="17.5508" height="15.5676" y="505.8042" clip-path="url(#clipPath2)"/>
      <text x="1088.9753" font-size="8px" y="516.4572" clip-path="url(#clipPath2)" font-family="'Liberation Serif'" stroke="none" xml:space="preserve">?</text>
    </g>
    <g fill="silver" text-rendering="geometricPrecision" shape-rendering="geometricPrecision" transform="matrix(1,0,0,1,-757,-505)" stroke="silver">
      <rect x="880.807" width="18" height="15.5676" y="531.7359" clip-path="url(#clipPath2)" stroke="none"/>
    </g>
    <g text-rendering="geometricPrecision" stroke-miterlimit="1.45" shape-rendering="geometricPrecision" transform="matrix(1,0,0,1,-757,-505)" stroke-linecap="butt">
      <rect fill="none" x="880.807" width="18" height="15.5676" y="531.7359" clip-path="url(#clipPath2)"/>
      <text x="887.807" font-size="8px" y="542.3889" clip-path="url(#clipPath2)" font-family="'Liberation Serif'" stroke="none" xml:space="preserve">0</text>
    </g>
    <g fill="silver" text-rendering="geometricPrecision" shape-rendering="geometricPrecision" transform="matrix(1,0,0,1,-757,-505)" stroke="silver">
      <rect x="832.807" width="18" height="15.5676" y="562.7137" clip-path="url(#clipPath2)" stroke="none"/>
    </g>
    <g text-rendering="geometricPrecision" stroke-miterlimit="1.45" shape-rendering="geometricPrecision" transform="matrix(1,0,0,1,-757,-505)" stroke-linecap="butt">
      <rect fill="none" x="832.807" width="18" height="15.5676" y="562.7137" clip-path="url(#clipPath2)"/>
      <text x="839.807" font-size="8px" y="573.3666" clip-path="url(#clipPath2)" font-family="'Liberation Serif'" stroke="none" xml:space="preserve">0</text>
    </g>
    <g fill="silver" text-rendering="geometricPrecision" shape-rendering="geometricPrecision" transform="matrix(1,0,0,1,-757,-505)" stroke="silver">
      <rect x="865.0057" width="18" height="15.5676" y="562.7137" clip-path="url(#clipPath2)" stroke="none"/>
    </g>
    <g text-rendering="geometricPrecision" stroke-miterlimit="1.45" shape-rendering="geometricPrecision" transform="matrix(1,0,0,1,-757,-505)" stroke-linecap="butt">
      <rect fill="none" x="865.0057" width="18" height="15.5676" y="562.7137" clip-path="url(#clipPath2)"/>
      <text x="872.0057" font-size="8px" y="573.3666" clip-path="url(#clipPath2)" font-family="'Liberation Serif'" stroke="none" xml:space="preserve">0</text>
    </g>
    <g fill="silver" text-rendering="geometricPrecision" shape-rendering="geometricPrecision" transform="matrix(1,0,0,1,-757,-505)" stroke="silver">
      <rect x="897.2044" width="18" height="15.5676" y="562.7137" clip-path="url(#clipPath2)" stroke="none"/>
    </g>
    <g text-rendering="geometricPrecision" stroke-miterlimit="1.45" shape-rendering="geometricPrecision" transform="matrix(1,0,0,1,-757,-505)" stroke-linecap="butt">
      <rect fill="none" x="897.2044" width="18" height="15.5676" y="562.7137" clip-path="url(#clipPath2)"/>
      <text x="904.2045" font-size="8px" y="573.3666" clip-path="url(#clipPath2)" font-family="'Liberation Serif'" stroke="none" xml:space="preserve">0</text>
    </g>
    <g fill="silver" text-rendering="geometricPrecision" shape-rendering="geometricPrecision" transform="matrix(1,0,0,1,-757,-505)" stroke="silver">
      <rect x="928.3578" width="18" height="15.5676" y="562.7137" clip-path="url(#clipPath2)" stroke="none"/>
    </g>
    <g text-rendering="geometricPrecision" stroke-miterlimit="1.45" shape-rendering="geometricPrecision" transform="matrix(1,0,0,1,-757,-505)" stroke-linecap="butt">
      <rect fill="none" x="928.3578" width="18" height="15.5676" y="562.7137" clip-path="url(#clipPath2)"/>
      <text x="935.3578" font-size="8px" y="573.3666" clip-path="url(#clipPath2)" font-family="'Liberation Serif'" stroke="none" xml:space="preserve">0</text>
    </g>
    <g fill="silver" text-rendering="geometricPrecision" shape-rendering="geometricPrecision" transform="matrix(1,0,0,1,-757,-505)" stroke="silver">
      <rect x="1081.7507" width="18" height="15.5676" y="531.7359" clip-path="url(#clipPath2)" stroke="none"/>
    </g>
    <g text-rendering="geometricPrecision" stroke-miterlimit="1.45" shape-rendering="geometricPrecision" transform="matrix(1,0,0,1,-757,-505)" stroke-linecap="butt">
      <rect fill="none" x="1081.7507" width="18" height="15.5676" y="531.7359" clip-path="url(#clipPath2)"/>
      <text x="1088.7507" font-size="8px" y="542.3889" clip-path="url(#clipPath2)" font-family="'Liberation Serif'" stroke="none" xml:space="preserve">0</text>
    </g>
    <g fill="silver" text-rendering="geometricPrecision" shape-rendering="geometricPrecision" transform="matrix(1,0,0,1,-757,-505)" stroke="silver">
      <rect x="1033.7507" width="18" height="15.5676" y="562.7137" clip-path="url(#clipPath2)" stroke="none"/>
    </g>
    <g text-rendering="geometricPrecision" stroke-miterlimit="1.45" shape-rendering="geometricPrecision" transform="matrix(1,0,0,1,-757,-505)" stroke-linecap="butt">
      <rect fill="none" x="1033.7507" width="18" height="15.5676" y="562.7137" clip-path="url(#clipPath2)"/>
      <text x="1040.7507" font-size="8px" y="573.3666" clip-path="url(#clipPath2)" font-family="'Liberation Serif'" stroke="none" xml:space="preserve">0</text>
    </g>
    <g fill="silver" text-rendering="geometricPrecision" shape-rendering="geometricPrecision" transform="matrix(1,0,0,1,-757,-505)" stroke="silver">
      <rect x="1065.9494" width="18" height="15.5676" y="562.7137" clip-path="url(#clipPath2)" stroke="none"/>
    </g>
    <g text-rendering="geometricPrecision" stroke-miterlimit="1.45" shape-rendering="geometricPrecision" transform="matrix(1,0,0,1,-757,-505)" stroke-linecap="butt">
      <rect fill="none" x="1065.9494" width="18" height="15.5676" y="562.7137" clip-path="url(#clipPath2)"/>
      <text x="1072.9493" font-size="8px" y="573.3666" clip-path="url(#clipPath2)" font-family="'Liberation Serif'" stroke="none" xml:space="preserve">0</text>
    </g>
    <g fill="silver" text-rendering="geometricPrecision" shape-rendering="geometricPrecision" transform="matrix(1,0,0,1,-757,-505)" stroke="silver">
      <rect x="1098.1481" width="18" height="15.5676" y="562.7137" clip-path="url(#clipPath2)" stroke="none"/>
    </g>
    <g text-rendering="geometricPrecision" stroke-miterlimit="1.45" shape-rendering="geometricPrecision" transform="matrix(1,0,0,1,-757,-505)" stroke-linecap="butt">
      <rect fill="none" x="1098.1481" width="18" height="15.5676" y="562.7137" clip-path="url(#clipPath2)"/>
      <text x="1105.1481" font-size="8px" y="573.3666" clip-path="url(#clipPath2)" font-family="'Liberation Serif'" stroke="none" xml:space="preserve">0</text>
    </g>
    <g fill="silver" text-rendering="geometricPrecision" shape-rendering="geometricPrecision" transform="matrix(1,0,0,1,-757,-505)" stroke="silver">
      <rect x="1129.3015" width="18" height="15.5676" y="562.7137" clip-path="url(#clipPath2)" stroke="none"/>
    </g>
    <g text-rendering="geometricPrecision" stroke-miterlimit="1.45" shape-rendering="geometricPrecision" transform="matrix(1,0,0,1,-757,-505)" stroke-linecap="butt">
      <rect fill="none" x="1129.3015" width="18" height="15.5676" y="562.7137" clip-path="url(#clipPath2)"/>
      <text x="1136.3015" font-size="8px" y="573.3666" clip-path="url(#clipPath2)" font-family="'Liberation Serif'" stroke="none" xml:space="preserve">0</text>
    </g>
    <g fill="silver" text-rendering="geometricPrecision" shape-rendering="geometricPrecision" transform="matrix(1,0,0,1,-757,-505)" stroke="silver">
      <rect x="1208.4548" width="18" height="15.5676" y="531.7359" clip-path="url(#clipPath2)" stroke="none"/>
    </g>
    <g text-rendering="geometricPrecision" stroke-miterlimit="1.45" shape-rendering="geometricPrecision" transform="matrix(1,0,0,1,-757,-505)" stroke-linecap="butt">
      <rect fill="none" x="1208.4548" width="18" height="15.5676" y="531.7359" clip-path="url(#clipPath2)"/>
      <text x="1215.4548" font-size="8px" y="542.3889" clip-path="url(#clipPath2)" font-family="'Liberation Serif'" stroke="none" xml:space="preserve">0</text>
    </g>
    <g fill="silver" text-rendering="geometricPrecision" shape-rendering="geometricPrecision" transform="matrix(1,0,0,1,-757,-505)" stroke="silver">
      <rect x="1160.4548" width="18" height="15.5676" y="562.7137" clip-path="url(#clipPath2)" stroke="none"/>
    </g>
    <g text-rendering="geometricPrecision" stroke-miterlimit="1.45" shape-rendering="geometricPrecision" transform="matrix(1,0,0,1,-757,-505)" stroke-linecap="butt">
      <rect fill="none" x="1160.4548" width="18" height="15.5676" y="562.7137" clip-path="url(#clipPath2)"/>
      <text x="1167.4548" font-size="8px" y="573.3666" clip-path="url(#clipPath2)" font-family="'Liberation Serif'" stroke="none" xml:space="preserve">0</text>
    </g>
    <g fill="silver" text-rendering="geometricPrecision" shape-rendering="geometricPrecision" transform="matrix(1,0,0,1,-757,-505)" stroke="silver">
      <rect x="1192.6535" width="18" height="15.5676" y="562.7137" clip-path="url(#clipPath2)" stroke="none"/>
    </g>
    <g text-rendering="geometricPrecision" stroke-miterlimit="1.45" shape-rendering="geometricPrecision" transform="matrix(1,0,0,1,-757,-505)" stroke-linecap="butt">
      <rect fill="none" x="1192.6535" width="18" height="15.5676" y="562.7137" clip-path="url(#clipPath2)"/>
      <text x="1199.6536" font-size="8px" y="573.3666" clip-path="url(#clipPath2)" font-family="'Liberation Serif'" stroke="none" xml:space="preserve">0</text>
    </g>
    <g fill="silver" text-rendering="geometricPrecision" shape-rendering="geometricPrecision" transform="matrix(1,0,0,1,-757,-505)" stroke="silver">
      <rect x="1224.8522" width="18" height="15.5676" y="562.7137" clip-path="url(#clipPath2)" stroke="none"/>
    </g>
    <g text-rendering="geometricPrecision" stroke-miterlimit="1.45" shape-rendering="geometricPrecision" transform="matrix(1,0,0,1,-757,-505)" stroke-linecap="butt">
      <rect fill="none" x="1224.8522" width="18" height="15.5676" y="562.7137" clip-path="url(#clipPath2)"/>
      <text x="1231.8523" font-size="8px" y="573.3666" clip-path="url(#clipPath2)" font-family="'Liberation Serif'" stroke="none" xml:space="preserve">0</text>
    </g>
    <g fill="silver" text-rendering="geometricPrecision" shape-rendering="geometricPrecision" transform="matrix(1,0,0,1,-757,-505)" stroke="silver">
      <rect x="1256.0056" width="18" height="15.5676" y="562.7137" clip-path="url(#clipPath2)" stroke="none"/>
    </g>
    <g text-rendering="geometricPrecision" stroke-miterlimit="1.45" shape-rendering="geometricPrecision" transform="matrix(1,0,0,1,-757,-505)" stroke-linecap="butt">
      <rect fill="none" x="1256.0056" width="18" height="15.5676" y="562.7137" clip-path="url(#clipPath2)"/>
      <text x="1263.0056" font-size="8px" y="573.3666" clip-path="url(#clipPath2)" font-family="'Liberation Serif'" stroke="none" xml:space="preserve">0</text>
      <path fill="none" d="M1081.9753 515.8529 L1010.8336 534.2146" clip-path="url(#clipPath2)"/>
      <path fill="none" d="M1081.9753 514.7205 L898.807 538.3583" clip-path="url(#clipPath2)"/>
      <path fill="none" d="M880.807 545.3281 L850.807 564.6891" clip-path="url(#clipPath2)"/>
      <path fill="none" d="M885.8366 547.3035 L877.9761 562.7137" clip-path="url(#clipPath2)"/>
      <path fill="none" d="M893.9272 547.3035 L902.0842 562.7137" clip-path="url(#clipPath2)"/>
      <path fill="none" d="M898.807 545.3829 L928.3578 564.6342" clip-path="url(#clipPath2)"/>
      <path fill="none" d="M1090.7507 521.3718 L1090.7507 531.736" clip-path="url(#clipPath2)"/>
      <path fill="none" d="M1081.7507 545.3281 L1051.7507 564.6891" clip-path="url(#clipPath2)"/>
      <path fill="none" d="M1086.7803 547.3035 L1078.9198 562.7137" clip-path="url(#clipPath2)"/>
      <path fill="none" d="M1094.8708 547.3035 L1103.028 562.7137" clip-path="url(#clipPath2)"/>
      <path fill="none" d="M1099.7507 545.3829 L1129.3015 564.6342" clip-path="url(#clipPath2)"/>
      <path fill="none" d="M1099.5261 515.384 L1208.4548 537.6777" clip-path="url(#clipPath2)"/>
      <path fill="none" d="M1208.4548 545.3281 L1178.4548 564.6891" clip-path="url(#clipPath2)"/>
      <path fill="none" d="M1213.4844 547.3035 L1205.6239 562.7137" clip-path="url(#clipPath2)"/>
      <path fill="none" d="M1221.575 547.3035 L1229.7321 562.7137" clip-path="url(#clipPath2)"/>
      <path fill="none" d="M1226.4548 545.3829 L1256.0056 564.6342" clip-path="url(#clipPath2)"/>
    </g>
  </g>
</svg>
